<svg viewBox="0 0 1024 1024" xmlns="http://www.w3.org/2000/svg" id="图层_1"><defs><style>.cls-1{fill:#ffe91f;}.cls-14,.cls-2,.cls-6{fill:#213f70;}.cls-3{fill:#fff;}.cls-4{fill:#3b82ea;}.cls-5{fill:#ffe1e1;}.cls-6{opacity:0.2;}.cls-7{opacity:0.5;}.cls-8{fill:#4374af;}.cls-9{fill:#4f7bba;}.cls-10{fill:#6a9ce5;}.cls-11{fill:none;stroke:#213f70;stroke-linecap:round;stroke-linejoin:round;stroke-width:8.44px;}.cls-12{fill:#15a6ff;}.cls-13{fill:aqua;}.cls-14{opacity:0.3;}</style></defs><title>头像比赛</title><path d="M524.7,637.2a138.4,138.4,0,0,1-24.1-2.1l-1.4-.5a4.8,4.8,0,0,1-2.6-5.2,4.9,4.9,0,0,1,4.8-4h.9a129.6,129.6,0,0,0,22.4,2c84.1,0,146.6-82.3,147.2-83.2a5.1,5.1,0,0,1,3.9-1.9,5.3,5.3,0,0,1,3,.9,5,5,0,0,1,.9,6.9C679.1,551,613.5,637.2,524.7,637.2Z" class="cls-1"></path><path d="M675.8,544a3.6,3.6,0,0,1,2,.6,3.3,3.3,0,0,1,.6,4.6c-.7.9-65.7,86.4-153.7,86.4a141.3,141.3,0,0,1-23.9-2.1l-.8-.3a3.4,3.4,0,0,1-1.8-3.5,3.3,3.3,0,0,1,3.2-2.7h.6a136.7,136.7,0,0,0,22.7,2c84.7,0,147.9-82.9,148.5-83.8a3.3,3.3,0,0,1,2.6-1.3m0-3.2a6.7,6.7,0,0,0-5.2,2.5c-.6.9-62.8,82.5-145.9,82.5a126,126,0,0,1-22.1-1.9h-1.2a6.5,6.5,0,0,0-6.4,5.3,6.7,6.7,0,0,0,3.5,7l1.8.5a132.6,132.6,0,0,0,24.4,2.2c20.5,0,41.5-4.6,62.3-13.6,16.7-7.2,33.2-17.3,49.3-29.9,27.9-22,44.6-43.9,44.7-44.2a6.4,6.4,0,0,0-5.2-10.3Z" class="cls-2"></path><path d="M348.9,1030.2a4.2,4.2,0,0,1-4.2-4.2V799.1a4.3,4.3,0,0,1,4.2-4.3h.4l245.5,22.6h.3l83.3,7.7a4.2,4.2,0,0,1,3.9,4.2V1026a4.2,4.2,0,0,1-4.3,4.2Z" class="cls-3"></path><path d="M348.9,799.1l33.3,3,28.3,2.6,1.8.2,182.1,16.8h.2l28.1,2.6,55.3,5.1V1026H348.9V799.1m0-8.5a8.3,8.3,0,0,0-8.4,8.5V1026a8.4,8.4,0,0,0,8.4,8.4H678a8.4,8.4,0,0,0,8.5-8.4V829.4a8.5,8.5,0,0,0-7.7-8.4l-55.3-5.1-28-2.6h-.3L413.1,796.5l-1.8-.2L383,793.7l-33.3-3Z" class="cls-2"></path><path d="M625.8,924.7c0,1.4-.1,2.5-.2,3.7l-.3,3.4c-.2,1.2-.3,2.3-.5,3.5s-.2,2.2-.4,3.4-.7,4.5-1.2,6.7-.9,4.5-1.3,6.8a211.1,211.1,0,0,1-7.6,26.1,197.5,197.5,0,0,1-10.9,24.9l-3.2,5.9-3.5,5.8-1.8,2.8-1.9,2.8-3.9,5.5,3.3-5.9,1.6-2.9c.6-1,1-2,1.5-3l2.9-6,2.6-6.2a172.4,172.4,0,0,0,8.2-25.2,212.4,212.4,0,0,0,4.9-26c.2-2.2.5-4.3.6-6.5s.4-4.4.5-6.6.1-2.1.1-3.2.1-2.2.1-3.3V928c0-1.1-.1-2.2-.1-3.1h0a5.3,5.3,0,0,1,10.5-.6Z" class="cls-2"></path><path d="M432.4,1014.2a18.2,18.2,0,0,0-1.3,2.8l-1.2,2.9c-.8,2-1.5,4-2.2,6.1-1.1-1.9-2.1-3.8-3.1-5.8s-1-2-1.4-3a22.2,22.2,0,0,1-1.4-3.1l-.3-.8a6,6,0,0,1,11.3-4.1A6.2,6.2,0,0,1,432.4,1014.2Z" class="cls-2"></path><path d="M448.9,710.9l-50.7,13s-19.5,56.9,71.1,59.5,134.5-20.3,134.5-20.3,16.6-26-3.3-41.5c-18.2-14.3-39.5-10.1-39.5-10.1Z" class="cls-2"></path><path d="M746,1030.2a4.1,4.1,0,0,1-3.1-1.4,4.4,4.4,0,0,1-1.1-3.3c.8-7.3,1.9-14.6,3.2-21.7a4.1,4.1,0,0,1-3.6,2h-.3a4.1,4.1,0,0,1-3.1-1.7c-.2,7.5-.2,14.7.2,21.7a4.1,4.1,0,0,1-1.2,3.1,4.2,4.2,0,0,1-3,1.3H589.6a4.2,4.2,0,0,1-4.2-3.9v-.7l-8.9-161a7.8,7.8,0,0,1,.2-1.6l47.1-143.5a4.2,4.2,0,0,1,4-2.9l1.1.2,7.3,2.1c18.2,5.4,65.2,19.8,109.8,38.1,57.2,23.4,89.7,44.6,96.6,62.9,1.2,3.2,3.3,19.6,7.3,53.6,2.2,18.2,4.2,35.4,5.4,42.5,2.8,17,3.7,30,3.7,36.5,0,15.7-11.5,53.1-23.3,75.5a4,4,0,0,1-3.7,2.2Z" class="cls-4"></path><path d="M627.7,720.8l7.2,2.2c35.4,10.4,188.4,57.8,203.7,98.4,2,5.3,9.7,78.4,12.4,95.3s3.7,29.1,3.7,35.8c0,14-10.5,50.1-22.8,73.5H746c5.2-46.6,21.6-90.8,23-94.4-1.6,3.3-18.1,24.7-27.6,70,0,0-.2-3.3-.3-8.8-.4-15.2-.4-47.1,5.5-71.2a354.2,354.2,0,0,0-10.9,55.9A294.9,294.9,0,0,0,734,1026H589.6v-.6l-8.9-161.1,14-42.6.4-1.2,16.4-50,16.3-49.7m0-8.4a8.4,8.4,0,0,0-8,5.8l-16.3,49.7L587,817.8l-.4,1.3-14,42.6a8,8,0,0,0-.4,3.1l8.9,161h0v.7a8.3,8.3,0,0,0,8.4,7.8H734a8.4,8.4,0,0,0,6-2.5,8.4,8.4,0,0,0,6,2.5h85.9a8.5,8.5,0,0,0,7.5-4.5c12.2-23.3,23.8-60.9,23.8-77.4,0-6.6-1-19.9-3.9-37.2-1.1-7-3.2-24.9-5.3-42.2-4.6-38.7-6.2-51.2-7.5-54.7-4.3-11.3-16.3-22.8-36.8-35.2-15.8-9.6-36.7-19.7-62.2-30.1-44.8-18.3-92-32.8-110.2-38.2l-7.3-2.2-2.3-.3Z" class="cls-2"></path><path d="M834.9,1030.2a4.2,4.2,0,0,1-3.9-2.4,4.3,4.3,0,0,1,.7-4.6c7.2-8.3,16.5-21.3,19.9-36.4a4.1,4.1,0,0,1,4.1-3.3h.2a4.3,4.3,0,0,1,4,3.7c.1.8,2.5,21.1,2.7,38.7a4.3,4.3,0,0,1-1.2,3.1,4.2,4.2,0,0,1-3,1.2Z" class="cls-4"></path><path d="M855.7,987.7s2.5,20.6,2.7,38.3H834.9c7-8.1,17.2-22,20.8-38.3m0-8.5a8.6,8.6,0,0,0-8.3,6.6c-3.3,15-13.3,28.2-18.9,34.7a8.3,8.3,0,0,0-1.3,9,8.5,8.5,0,0,0,7.7,4.9h23.5a8.4,8.4,0,0,0,6-2.5,8.1,8.1,0,0,0,2.4-6c-.2-17.9-2.6-38.4-2.7-39.2a8.5,8.5,0,0,0-8-7.5Z" class="cls-2"></path><path d="M500.5,831.6c-38.9-2.6-67.4-12.8-84.9-30.6-13.6-13.7-15-26.8-15.1-27.3a4.2,4.2,0,0,1,1.2-3.4c44.7-45.8,39.8-121.3,39.7-122a4,4,0,0,1,1.3-3.3,4.1,4.1,0,0,1,2.9-1.3h.4l60.2,4.9,60.3-4.9h.3a4.3,4.3,0,0,1,3,1.3,4.2,4.2,0,0,1,1.2,3.3c0,.7-5,76.2,39.8,122a4.3,4.3,0,0,1,1.1,3.9c-.5,1.9-12.3,45.8-110.7,57.4h-.7Z" class="cls-5"></path><path d="M566.8,648h0m0,0s-5.7,77.5,41,125.2c0,0-10.5,42.8-107.1,54.2-91.1-6-96-54.2-96-54.2C451.3,725.5,445.6,648,445.6,648l60.6,4.9,60.6-4.9m-121.2-8.5a8.3,8.3,0,0,0-5.9,2.5,8.4,8.4,0,0,0-2.5,6.6,199,199,0,0,1-2.9,43.1c-3.9,21.8-13.2,52.6-35.6,75.6a8.2,8.2,0,0,0-2.4,6.8c.2,2.2,6.8,55.3,103.9,61.7h1.5c41.7-4.9,73.4-16.1,94.1-33.2,16.4-13.6,19.8-26,20.2-27.4a8.8,8.8,0,0,0-2.2-7.9c-22.5-23-31.8-53.8-35.6-75.6a196.7,196.7,0,0,1-3-43V648a8.4,8.4,0,0,0-8.4-8.5H566l-59.8,4.8-59.9-4.9Zm121.2,16.9Z" class="cls-2"></path><path d="M440.7,684.4S468,711.9,508,711.9s63.9-26,63.9-26l-2.2-29.1-128.6,3.1Z" class="cls-6"></path><g class="cls-7"><path d="M602,771.3l-29.1-1.6-7.3-.4h-3.5a19.9,19.9,0,0,0-3.4.5,15.7,15.7,0,0,0-6.4,3,22.2,22.2,0,0,0-4.8,5.3,21.3,21.3,0,0,1,4.3-6,19,19,0,0,1,6.4-3.9,22.2,22.2,0,0,1,3.7-.9l1.9-.2h1.8l7.3-.4,29.1-1.6a3.3,3.3,0,0,1,3.5,3.1,3.2,3.2,0,0,1-3.1,3.4Z" class="cls-2"></path></g><g class="cls-7"><path d="M406.8,764.8l29.1,1.6,7.3.4H445l2,.2a24.9,24.9,0,0,1,3.7.9,20,20,0,0,1,6.4,3.9,23.5,23.5,0,0,1,4.3,6,20.6,20.6,0,0,0-4.9-5.3,15.3,15.3,0,0,0-6.3-3,19.9,19.9,0,0,0-3.4-.5h-3.6l-7.3.4-29.1,1.6a3.3,3.3,0,1,1-.3-6.5Z" class="cls-2"></path></g><path d="M644,548.3c-11.1,0-16.8-5.4-19.6-9.9-7.5-12.2-5.5-35.6,6.2-69.5a425.2,425.2,0,0,1,19.2-46.3,4.2,4.2,0,0,1,3.2-2.4,213.7,213.7,0,0,1,29.3-2.4c8.7,0,15.2.9,19.7,2.6,12.1,4.7,8.7,39.4,8.3,43.4-3.9,36.6-21.6,77.9-59.7,84A51.4,51.4,0,0,1,644,548.3Z" class="cls-5"></path><path d="M682.3,422.2c7,0,13.6.5,18.1,2.3,13.4,5.2,9.5,109.5-50.4,119a45.4,45.4,0,0,1-6,.5c-49.5,0,9.7-119.5,9.7-119.5a216.3,216.3,0,0,1,28.6-2.3m0-8.7v0a226.2,226.2,0,0,0-30,2.4,9.1,9.1,0,0,0-6.4,4.7,448.6,448.6,0,0,0-19.4,46.9c-12.3,35.7-14.2,59.7-5.7,73.2,3.3,5.5,10.1,12,23.2,12a37.5,37.5,0,0,0,7.3-.7c40.5-6.4,59.2-49.5,63.3-87.8,1.1-10.4,1.1-20.5-.1-28.4-1.6-10.8-5.2-17.2-11-19.4s-11.9-2.9-21.2-2.9Z" class="cls-2"></path><path d="M648.4,441c2-.7,3.9-1.2,5.8-1.7l5.7-1.3a91.6,91.6,0,0,1,11.7-1.7,59.2,59.2,0,0,1,11.9.1,31.5,31.5,0,0,1,11.8,3.5l1.3.9,1.4,1.1a9.4,9.4,0,0,1,2.1,2.8,17.3,17.3,0,0,1,1.6,6.1,45.2,45.2,0,0,1-.9,11.7,122.8,122.8,0,0,1-6.4,21.9,129.9,129.9,0,0,0,4.3-22.2,43.9,43.9,0,0,0-.3-10.9,13.1,13.1,0,0,0-1.7-4.7,5.6,5.6,0,0,0-1.4-1.6,4.7,4.7,0,0,0-.9-.6l-1.1-.6a28.5,28.5,0,0,0-10.2-2,56.1,56.1,0,0,0-10.7,1,78,78,0,0,0-10.6,2.6l-5.2,1.7c-1.7.6-3.5,1.3-5,2h-.1a4.4,4.4,0,0,1-3.5-8Z" class="cls-2"></path><path d="M654.9,528.1l2.6-1.5,2.7-1.8,2.7-1.9,2.6-2a90.6,90.6,0,0,0,9.4-9.2l2.1-2.6,1.9-2.7c.7-.9,1.2-1.9,1.8-2.8l.9-1.4a10.9,10.9,0,0,0,.8-1.5l1.6-3,1.3-3.1.6-1.6.5-1.6,1-3.3-.5,3.4-.2,1.7c-.1.6-.3,1.1-.4,1.7l-.8,3.3-1.1,3.3-.6,1.7-.6,1.6c-.5,1.1-.9,2.2-1.4,3.2l-1.6,3.1-1.8,3.1a92.9,92.9,0,0,1-8.4,11.4l-2.4,2.6-2.6,2.5-2.7,2.4a37,37,0,0,1-2.9,2.4,4.4,4.4,0,0,1-6.1-.9,4.3,4.3,0,0,1,1-6.1Z" class="cls-2"></path><path d="M669.9,546.8a3.5,3.5,0,0,1-2.4-1,4.4,4.4,0,0,1-.8-2.5c.1-.2,2.1-27.3.9-43.4l-2.9-.2a41.3,41.3,0,0,0-6.6.7h-.5a3.1,3.1,0,0,1-2.1-.7,3.7,3.7,0,0,1-1.2-2.4l-1.5-41.9a3.2,3.2,0,0,1,2.9-3.3,166.4,166.4,0,0,1,18.7-1.1c11.6,0,15.3,1.7,17,3.1,7.6,5.7,6.7,27.5,4.6,44.9-2.3,19.7-7.1,39.7-11,46.6a3.4,3.4,0,0,1-2.9,1.6Z" class="cls-1"></path><path d="M674.4,454.2c6.4,0,12.6.6,15.1,2.5,11.1,8.4.2,74.2-7.4,87.3l-12.1-.4s2.1-27.6.8-44.1c0,0,6.7,1,7.4,2.3h0c-.3-.6-3.3-5.3-13.5-5.3a38.6,38.6,0,0,0-7.1.7L656,455.3a182.8,182.8,0,0,1,18.4-1.1m0-6.5h0a165.4,165.4,0,0,0-19.1,1.2,6.4,6.4,0,0,0-5.7,6.7l1.5,41.8a6.4,6.4,0,0,0,2.4,4.8,6.9,6.9,0,0,0,4.1,1.5h1.1a31.7,31.7,0,0,1,5.8-.6c.8,16-1,39.8-1,40.1a6.4,6.4,0,0,0,1.6,4.8,6.9,6.9,0,0,0,4.6,2.2l12.2.4h.2a6.5,6.5,0,0,0,5.7-3.2c4.8-8.4,9.4-30.4,11.5-47.9a176.4,176.4,0,0,0,1.3-27.7c-.6-10.5-2.9-17-7.2-20.2s-9.3-3.8-19-3.8Z" class="cls-2"></path><path d="M366.2,548.3a52.8,52.8,0,0,1-6.6-.5c-38-6.1-55.8-47.4-59.6-84-.5-4-3.8-38.7,8.3-43.4,4.5-1.7,10.9-2.6,19.6-2.6a216,216,0,0,1,29.4,2.4,4.5,4.5,0,0,1,3.2,2.4,449.6,449.6,0,0,1,19.2,46.3c11.6,33.9,13.7,57.3,6.1,69.5-2.8,4.5-8.5,9.9-19.6,9.9Z" class="cls-5"></path><path d="M327.9,422.2a216.7,216.7,0,0,1,28.7,2.3S415.8,544,366.2,544a42.7,42.7,0,0,1-5.9-.5c-59.9-9.5-63.9-113.8-50.5-119,4.5-1.8,11.2-2.3,18.1-2.3m0-8.7c-9.2,0-16.2,1-21.2,2.9s-9.4,8.6-11,19.4a121.6,121.6,0,0,0-.1,28.4c4.1,38.3,22.9,81.4,63.3,87.8a38.3,38.3,0,0,0,7.3.7c13.1,0,19.9-6.5,23.3-12,8.4-13.5,6.5-37.5-5.7-73.2a437.3,437.3,0,0,0-19.5-46.9,8.7,8.7,0,0,0-6.4-4.7,222.3,222.3,0,0,0-30-2.4Z" class="cls-2"></path><path d="M358.7,449.1c-1.5-.7-3.3-1.4-5-2l-5.2-1.7a81.9,81.9,0,0,0-10.6-2.6,56.4,56.4,0,0,0-10.8-1,28.4,28.4,0,0,0-10.1,2l-1.1.6-.9.6a5.6,5.6,0,0,0-1.4,1.6,11.5,11.5,0,0,0-1.7,4.7,39.6,39.6,0,0,0-.3,10.9,120.9,120.9,0,0,0,4.3,22.2,115.3,115.3,0,0,1-6.5-21.9,45.2,45.2,0,0,1-.8-11.7,17.3,17.3,0,0,1,1.6-6.1,11,11,0,0,1,2-2.8l1.4-1.1,1.4-.9a31,31,0,0,1,11.7-3.5,60.2,60.2,0,0,1,12-.1,90.1,90.1,0,0,1,11.6,1.7l5.8,1.3c1.9.5,3.7,1,5.7,1.7a4.3,4.3,0,1,1-2.7,8.2Z" class="cls-2"></path><path d="M350.9,535.5c-1.2-.8-2-1.6-3-2.4l-2.7-2.4-2.5-2.5-2.4-2.6a76,76,0,0,1-8.4-11.4,31.4,31.4,0,0,1-1.8-3.1l-1.6-3.1c-.5-1-.9-2.1-1.4-3.2l-.7-1.6-.5-1.7-1.1-3.3-.8-3.3a10.5,10.5,0,0,1-.4-1.7l-.3-1.7-.5-3.4,1,3.3.6,1.6a16.6,16.6,0,0,0,.6,1.6l1.3,3.1,1.5,3a10.9,10.9,0,0,1,.8,1.5l.9,1.4,1.8,2.8,2,2.7c.6.9,1.4,1.7,2.1,2.6a81.7,81.7,0,0,0,9.4,9.2l2.6,2,2.6,1.9,2.7,1.8a25.2,25.2,0,0,0,2.7,1.5,4.4,4.4,0,0,1,1.9,5.9,4.3,4.3,0,0,1-5.8,1.9Z" class="cls-2"></path><path d="M328.1,547.2a3.3,3.3,0,0,1-2.8-1.6c-4-6.9-8.7-26.9-11.1-46.6-2-17.4-2.9-39.2,4.6-44.9,1.8-1.4,5.5-3.1,17-3.1a171.3,171.3,0,0,1,18.8,1.1,3.3,3.3,0,0,1,2.9,3.3l-1.6,41.9a3.3,3.3,0,0,1-1.2,2.4,3.1,3.1,0,0,1-2,.7h-.6a40.1,40.1,0,0,0-6.6-.7l-2.8.2c-1.3,16.1.8,43.2.8,43.4a3.3,3.3,0,0,1-.8,2.5,3.3,3.3,0,0,1-2.3,1Z" class="cls-1"></path><path d="M335.8,454.2a182.8,182.8,0,0,1,18.4,1.1l-1.5,41.9a39.6,39.6,0,0,0-7.2-.7c-10.1,0-13.1,4.7-13.5,5.3h0c.8-1.3,7.4-2.3,7.4-2.3-1.3,16.5.9,44.1.9,44.1l-12.2.4c-7.6-13.1-18.4-78.9-7.3-87.3,2.5-1.9,8.7-2.5,15-2.5m0-6.5c-9.6,0-15.5,1.2-18.9,3.8s-6.6,9.7-7.2,20.2a165,165,0,0,0,1.3,27.7c2.1,17.5,6.7,39.5,11.5,47.9a6.5,6.5,0,0,0,5.6,3.2h.2l12.2-.4a6.7,6.7,0,0,0,6.3-7c-.1-.3-1.9-24.1-1.1-40.1a31.9,31.9,0,0,1,5.9.6h1.1a6.9,6.9,0,0,0,4.1-1.5,6.8,6.8,0,0,0,2.4-4.8l1.5-41.8a6.5,6.5,0,0,0-5.7-6.7,165.9,165.9,0,0,0-19.2-1.2Z" class="cls-2"></path><path d="M506.2,696.8a57.2,57.2,0,0,1-28.3-7.4c-32.7-18.6-91.5-59.2-118.4-121.3-18.6-43-1.1-328.5-.3-340.7a4.2,4.2,0,0,1,4.3-4H649a4.3,4.3,0,0,1,4.3,4c.7,12.2,18.2,297.7-.4,340.7-26.8,62.1-85.7,102.7-118.4,121.3A56.7,56.7,0,0,1,506.2,696.8Z" class="cls-5"></path><path d="M649,227.7s18.3,296.2,0,338.7c-26.2,60.5-83.1,100.1-116.6,119.2a53,53,0,0,1-52.3,0c-33.6-19.1-90.5-58.7-116.6-119.2-18.4-42.5,0-338.7,0-338.7H649m0-8.7H363.5a8.7,8.7,0,0,0-8.7,8.2c0,.7-4.6,75.1-6.9,153.6-1.3,46.3-1.6,84.9-.8,114.9,1.3,52,5.4,67.2,8.4,74.1,12.1,27.8,31.4,54.1,57.7,78.1a346.6,346.6,0,0,0,62.6,45.2,61.3,61.3,0,0,0,60.9,0,350.1,350.1,0,0,0,62.6-45.2c26.2-24,45.6-50.3,57.6-78.1,3-6.9,7.1-22.1,8.5-74.1.7-30,.4-68.6-.9-114.9-2.3-78.5-6.8-152.9-6.9-153.6A8.7,8.7,0,0,0,649,219Z" class="cls-2"></path><path d="M349.1,417.1c.6.7,4.7,5.2,9,9.6a3.3,3.3,0,0,0,5.6-3v-.2a3.3,3.3,0,0,1,3.1-4c5.8-.3,17.2-1.1,27-4.2a3.3,3.3,0,0,0,1.8-4.9,34.8,34.8,0,0,1-3.1-5.5,3.3,3.3,0,0,1,5.2-3.7c9.1,8.1,27.8,19.5,58.3,15.4a3.3,3.3,0,0,0,2.5-4.8c-9.9-19.5-60.9-120.3-17.1-131a7.1,7.1,0,0,1,8.7,5.5c2.7,11.5,15.5,14.7,17.1,14.9,24.1,2.5,13.3-24.8,33.4-24.8,30.5,0-14.5,117.6-24.7,135.3a3.4,3.4,0,0,0,2.5,4.9c11.2,1.2,37.6,2.5,55.4-10.4a3.3,3.3,0,0,1,4.2.4,13.1,13.1,0,0,1,4.5,9.6,3.2,3.2,0,0,0,3.5,3.1c8-.7,26.6-3,40.3-10.6a3.3,3.3,0,0,1,4.9,3.4,83.1,83.1,0,0,1-2.4,10.4,3.3,3.3,0,0,0,3.1,4.2c9.8.1,32.5-1.6,44.5-17.9a3.3,3.3,0,0,1,5.9,1.7c.6,7.5,1.1,17.6.3,26.2a3.2,3.2,0,0,0,3.6,3.5c4.6-.5,11.9-1.9,14.3-6.2a2.7,2.7,0,0,0,.3-1.2l16.8-135.9a3.4,3.4,0,0,0-1.6-3.2L530.2,206.8a3.5,3.5,0,0,0-2-.5L344.6,223.9a3.1,3.1,0,0,0-2.8,2.5L306.9,375.3a3.4,3.4,0,0,0,.9,3.2l41.1,38.4Z" class="cls-6"></path><path d="M493.2,560.2a56.4,56.4,0,0,0,6.5,4.6,12.1,12.1,0,0,0,3.3,1.5,12.8,12.8,0,0,0,3.2.6,11.3,11.3,0,0,0,3.2-.6,16.1,16.1,0,0,0,3.3-1.5,51.8,51.8,0,0,0,6.5-4.6,15.3,15.3,0,0,1-4.4,7.3,12.2,12.2,0,0,1-3.8,2.6,11.3,11.3,0,0,1-4.8,1.1,12.4,12.4,0,0,1-4.7-1.1,11.2,11.2,0,0,1-3.8-2.6A16,16,0,0,1,493.2,560.2Z" class="cls-2"></path><path d="M552.4,595.9a44.9,44.9,0,0,1-4.1,4.6,27.7,27.7,0,0,1-5.2,3.8,27.1,27.1,0,0,1-12.5,3.6c-8.1.5-16.2.7-24.4.7s-16.2-.2-24.4-.7a27.4,27.4,0,0,1-12.5-3.6,27.1,27.1,0,0,1-5.1-3.8,29.4,29.4,0,0,1-4.1-4.6l2.6,1.6,2.5,1.6a41.6,41.6,0,0,0,5.4,2.3,28.8,28.8,0,0,0,11.2,1.4c8.2-.4,16.3-.7,24.4-.7s16.3.3,24.4.7a28.6,28.6,0,0,0,11.2-1.4,25.8,25.8,0,0,0,5.4-2.3l2.6-1.6Z" class="cls-2"></path><path d="M495.1,626.5a13.3,13.3,0,0,1,5-3.6,16,16,0,0,1,6.1-1.4,14.5,14.5,0,0,1,6.2,1.1,9.9,9.9,0,0,1,4.9,3.9c-2.1-.2-3.9-.6-5.7-.6a46.9,46.9,0,0,0-5.3-.1l-5.3.3Z" class="cls-2"></path><path d="M551.1,432.6a3.6,3.6,0,0,1-2.3-.8,3.7,3.7,0,0,1-1-2.4v-5.9a3.3,3.3,0,0,1,2.7-3.2c.5-.1,45.1-7.6,70.5-13.7h.8a2.6,2.6,0,0,1,1.9.7l17.8,13.7a3.5,3.5,0,0,1,1.1,3.6,3.2,3.2,0,0,1-2.9,2.3l-88.4,5.8Z" class="cls-8"></path><path d="M621.8,409.8l17.7,13.7-88.4,5.9v-5.9s44.8-7.5,70.7-13.7m0-6.5h-1.6c-25.3,6.2-69.8,13.6-70.2,13.7a6.5,6.5,0,0,0-5.4,6.4v5.9a6.3,6.3,0,0,0,2,4.7,6.7,6.7,0,0,0,4.5,1.8h.4l88.4-5.9a6.5,6.5,0,0,0,5.8-4.6,6.4,6.4,0,0,0-2.2-7l-17.8-13.8a6.1,6.1,0,0,0-3.9-1.3Z" class="cls-2"></path><path d="M536.8,501.4s14.3,30.4,74.2,24.2c0,0,27.2-11.1,29.5-38,0,0,.8-44.6-60.3-40.4C580.2,447.2,556.9,440.9,536.8,501.4Z" class="cls-3"></path><circle r="37.4" cy="483.1" cx="591.1" class="cls-9"></circle><path d="M591.1,448.9a34.2,34.2,0,1,1-34.2,34.2,34.2,34.2,0,0,1,34.2-34.2m0-6.4a40.6,40.6,0,1,0,40.6,40.6,40.7,40.7,0,0,0-40.6-40.6Z" class="cls-2"></path><path d="M594.2,450.7l.4-1.8v1.9a3.1,3.1,0,0,0,6,1.3l.8-1.7-.4,1.8a3.2,3.2,0,0,0,5.7,2.5l1-1.5-.7,1.7a3.2,3.2,0,0,0,5,3.7l1.4-1.3-1.1,1.5a3.2,3.2,0,0,0,4.2,4.6l1.6-.9-1.4,1.2a3.2,3.2,0,0,0,3.1,5.4l1.7-.6-1.6,1a3.2,3.2,0,0,0,2,5.9l1.8-.2-1.8.5a3.2,3.2,0,0,0,.7,6.2l1.8.2-1.8.2a3.2,3.2,0,0,0-.7,6.2l1.8.5h-1.8a3.2,3.2,0,0,0-2,5.9l1.6.9-1.7-.6a3.2,3.2,0,0,0-3.1,5.4l1.4,1.2-1.6-.9a3.2,3.2,0,0,0-4.2,4.6l1.1,1.5-1.4-1.2a3.1,3.1,0,0,0-5,3.6l.7,1.7-1-1.5A3.2,3.2,0,0,0,601,512l.4,1.8-.8-1.7a3.1,3.1,0,0,0-6,1.3v1.9l-.4-1.8a3.2,3.2,0,0,0-6.2,0l-.4,1.8v-1.9a3.2,3.2,0,0,0-6.1-1.3l-.7,1.7.4-1.8a3.2,3.2,0,0,0-5.7-2.5l-1.1,1.5.7-1.7a3.1,3.1,0,0,0-5-3.6l-1.3,1.2,1-1.5a3.1,3.1,0,0,0-4.1-4.6l-1.6.9,1.4-1.2c2.5-2.3.1-6.5-3.1-5.4l-1.8.6,1.6-.9a3.2,3.2,0,0,0-1.9-5.9h-1.8l1.7-.5a3.2,3.2,0,0,0-.6-6.2l-1.9-.2,1.9-.2a3.2,3.2,0,0,0,.6-6.2l-1.7-.5,1.8.2a3.2,3.2,0,0,0,1.9-5.9l-1.6-1,1.8.6c3.2,1.1,5.6-3.1,3.1-5.4l-1.4-1.2,1.6.9a3.1,3.1,0,0,0,4.1-4.6l-1-1.5,1.3,1.3a3.2,3.2,0,0,0,5-3.7l-.7-1.7,1.1,1.5a3.2,3.2,0,0,0,5.7-2.5l-.4-1.8.7,1.7a3.2,3.2,0,0,0,6.1-1.3v-1.9l.4,1.8A3.2,3.2,0,0,0,594.2,450.7Z" class="cls-10"></path><circle r="30.2" cy="478.5" cx="587.1" class="cls-2"></circle><circle r="7.9" cy="468.3" cx="567.3" class="cls-3"></circle><circle r="4.5" cy="501.4" cx="606.4" class="cls-3"></circle><path d="M544.6,486.5s-2.5-8.2.7-13.7c0,0-4.7,3.9-8.5,13.7,0,0,5.7-46.3,51-47.5,33.3-.9,49.6,18.4,49.6,18.4s4.7.6,7.3-11.9c0,0,2.6,12.2-2.3,24,0,0,4.9,20.8-5.5,29.6,0,0,8.6-52.6-50.9-51C553.2,448.9,544.6,486.5,544.6,486.5Z" class="cls-2"></path><path d="M566.2,524.4a113.7,113.7,0,0,0,17.2,2.1,87.7,87.7,0,0,0,17-.9,60.2,60.2,0,0,0,8.2-1.8,57.9,57.9,0,0,0,8-2.7,85.8,85.8,0,0,0,15.1-8.3,46.7,46.7,0,0,1-13.6,11.4,56.2,56.2,0,0,1-8.3,3.6,62.7,62.7,0,0,1-8.8,2.1,59.7,59.7,0,0,1-17.9-.1A49.9,49.9,0,0,1,566.2,524.4Z" class="cls-2"></path><path d="M545.4,454.2a40.6,40.6,0,0,1,9.3-8.7,54.7,54.7,0,0,1,11.4-6.2,67.3,67.3,0,0,1,12.4-3.5,71.3,71.3,0,0,1,13-1.1,93.6,93.6,0,0,1,12.9,1.1,69.9,69.9,0,0,1,12.5,3.3,52.5,52.5,0,0,1,11.5,6,30.9,30.9,0,0,1,8.9,9.1,37.1,37.1,0,0,0-9.8-7.8,54.5,54.5,0,0,0-11.4-4.9,73.7,73.7,0,0,0-12.2-2.6,86.2,86.2,0,0,0-12.4-.9,74.3,74.3,0,0,0-12.5.8,70,70,0,0,0-12,2.9,58.3,58.3,0,0,0-11.4,5.1A50.2,50.2,0,0,0,545.4,454.2Z" class="cls-2"></path><path d="M470.8,501.4s-14.3,30.4-74.2,24.2c0,0-27.2-11.1-29.5-38,0,0-.9-44.6,60.3-40.4C427.4,447.2,450.6,440.9,470.8,501.4Z" class="cls-3"></path><path d="M461.2,432.6l-88.5-5.8a3.1,3.1,0,0,1-2.8-2.3,3.3,3.3,0,0,1,1.1-3.6l17.7-13.7a3.1,3.1,0,0,1,2-.7h.8c25.4,6.1,70,13.6,70.4,13.7a3.2,3.2,0,0,1,2.7,3.2v5.9a3.3,3.3,0,0,1-1,2.4,3.5,3.5,0,0,1-2.2.8Z" class="cls-8"></path><path d="M390.7,409.8c25.8,6.2,70.7,13.7,70.7,13.7v5.9L373,423.5l17.7-13.7m0-6.5a6.6,6.6,0,0,0-4,1.3L369,418.4a6.5,6.5,0,0,0-2.3,7,6.5,6.5,0,0,0,5.8,4.6l88.5,5.9h.4a6.7,6.7,0,0,0,4.4-1.8,6.4,6.4,0,0,0,2.1-4.7v-5.9a6.5,6.5,0,0,0-5.4-6.4c-.5-.1-45-7.5-70.3-13.7Z" class="cls-2"></path><circle transform="translate(-152.8 198) rotate(-22.5)" r="37.4" cy="483.1" cx="421.4" class="cls-9"></circle><path d="M421.4,448.9a34.2,34.2,0,1,1-34.2,34.2,34.2,34.2,0,0,1,34.2-34.2m0-6.4A40.6,40.6,0,1,0,462,483.1a40.7,40.7,0,0,0-40.6-40.6Z" class="cls-2"></path><path d="M418.3,450.7l-.4-1.8v1.9a3.2,3.2,0,0,1-6.1,1.3l-.7-1.7.4,1.8a3.2,3.2,0,0,1-5.7,2.5l-1.1-1.5.8,1.7a3.2,3.2,0,0,1-5.1,3.7l-1.3-1.3,1,1.5a3.1,3.1,0,0,1-4.1,4.6l-1.6-.9,1.4,1.2c2.5,2.3.1,6.5-3.1,5.4l-1.8-.6,1.6,1a3.2,3.2,0,0,1-1.9,5.9l-1.8-.2,1.7.5a3.2,3.2,0,0,1-.6,6.2l-1.9.2,1.9.2a3.2,3.2,0,0,1,.6,6.2l-1.7.5h1.8a3.2,3.2,0,0,1,1.9,5.9l-1.6.9,1.8-.6c3.2-1.1,5.6,3.1,3.1,5.4l-1.4,1.2,1.6-.9a3.1,3.1,0,0,1,4.1,4.6l-1,1.5,1.3-1.2a3.2,3.2,0,0,1,5.1,3.6l-.8,1.7,1.1-1.5a3.2,3.2,0,0,1,5.7,2.5l-.4,1.8.7-1.7a3.2,3.2,0,0,1,6.1,1.3v1.9l.4-1.8a3.2,3.2,0,0,1,6.2,0l.4,1.8v-1.9a3.1,3.1,0,0,1,6-1.3l.8,1.7-.4-1.8a3.2,3.2,0,0,1,5.7-2.5l1.1,1.5-.8-1.7a3.1,3.1,0,0,1,5-3.6l1.4,1.2-1.1-1.5a3.2,3.2,0,0,1,4.2-4.6l1.6.9-1.4-1.2a3.2,3.2,0,0,1,3.1-5.4l1.7.6-1.6-.9a3.2,3.2,0,0,1,2-5.9H454l-1.8-.5a3.2,3.2,0,0,1,.7-6.2l1.8-.2-1.8-.2a3.2,3.2,0,0,1-.7-6.2l1.8-.5-1.8.2a3.2,3.2,0,0,1-2-5.9l1.6-1-1.7.6a3.2,3.2,0,0,1-3.1-5.4l1.4-1.2-1.6.9a3.2,3.2,0,0,1-4.2-4.6l1.1-1.5-1.4,1.3a3.2,3.2,0,0,1-5-3.7l.8-1.7-1.1,1.5a3.2,3.2,0,0,1-5.7-2.5l.4-1.8-.8,1.7a3.1,3.1,0,0,1-6-1.3v-1.9l-.4,1.8A3.2,3.2,0,0,1,418.3,450.7Z" class="cls-10"></path><circle r="30.2" cy="478.5" cx="412.9" class="cls-2"></circle><circle r="7.9" cy="468.3" cx="398" class="cls-3"></circle><circle r="4.5" cy="501.4" cx="432" class="cls-3"></circle><path d="M467.9,486.5s2.4-8.2-.7-13.7c0,0,4.7,3.9,8.5,13.7,0,0-5.8-46.3-51.1-47.5-33.2-.9-49.6,18.4-49.6,18.4s-4.6.6-7.2-11.9c0,0-2.6,12.2,2.3,24,0,0-4.9,20.8,5.5,29.6,0,0-8.7-52.6,50.8-51C459.2,448.9,467.9,486.5,467.9,486.5Z" class="cls-2"></path><path d="M448.2,524.1a46.5,46.5,0,0,1-17.1,6.4,48.5,48.5,0,0,1-18.6-.3,45.7,45.7,0,0,1-29.7-20.8,89.7,89.7,0,0,0,14.4,10.5,58.8,58.8,0,0,0,16.2,6.1,66.4,66.4,0,0,0,17.3,1.2c2.9-.2,5.8-.6,8.8-1.1S445.3,524.9,448.2,524.1Z" class="cls-2"></path><path d="M467.1,454.2a56.4,56.4,0,0,0-10.2-7.4,61.1,61.1,0,0,0-11.4-5.1,71.1,71.1,0,0,0-12.1-2.9A73.1,73.1,0,0,0,421,438a87.6,87.6,0,0,0-12.5.9,72.5,72.5,0,0,0-12.1,2.6,53.1,53.1,0,0,0-11.5,4.9,38.7,38.7,0,0,0-9.8,7.8,31.2,31.2,0,0,1,9-9.1,48.4,48.4,0,0,1,11.5-6,65.7,65.7,0,0,1,12.5-3.3,93.6,93.6,0,0,1,12.9-1.1,70.2,70.2,0,0,1,12.9,1.1,66.1,66.1,0,0,1,12.5,3.5,54,54,0,0,1,11.3,6.2A43.2,43.2,0,0,1,467.1,454.2Z" class="cls-2"></path><path d="M472.8,1030.2a4.1,4.1,0,0,1-4.2-4.1l-1.7-78.3a5.7,5.7,0,0,1,.3-1.8l16.6-38.1a5.2,5.2,0,0,1,1.9-2l18.5-10.1a4.3,4.3,0,0,1,4,0l18.6,10.1a4.3,4.3,0,0,1,1.8,2L545.2,946a3.9,3.9,0,0,1,.4,1.8l-1.7,78.3a4.2,4.2,0,0,1-4.2,4.1Z" class="cls-4"></path><path d="M506.2,899.5l18.6,10.1,16.6,38.1-1.7,78.3H472.8l-1.7-78.3,16.6-38.1,18.5-10.1m0-8.4a7.9,7.9,0,0,0-4,1l-18.5,10.1a8,8,0,0,0-3.7,4l-16.6,38.1a7.7,7.7,0,0,0-.7,3.6l1.6,78.3a8.4,8.4,0,0,0,8.5,8.2h66.9a8.3,8.3,0,0,0,8.4-8.2l1.7-78.3a9.2,9.2,0,0,0-.7-3.6l-16.6-38.1a9,9,0,0,0-3.7-4l-18.5-10.1a8.6,8.6,0,0,0-4.1-1Z" class="cls-2"></path><line y2="916.5" x2="506.2" y1="1026" x1="506.2" class="cls-11"></line><path d="M471.1,920.8a4.2,4.2,0,0,1-4.1-3.4c-3.1-14.6-1.4-35.3-1.3-36.2a4.2,4.2,0,0,1,3.1-3.7,31.3,31.3,0,0,0,5.4-1.9l-4.5,1H469a4.2,4.2,0,0,1-4.2-3.6l-5-31.5a3.9,3.9,0,0,1,.9-3.3,4.3,4.3,0,0,1,2.9-1.6c.3,0,32.7-3,55.5-3,20.5,0,23.9,2.3,25.6,4.7,5.6,7.6.4,31.4-1.3,38.5a4.4,4.4,0,0,1-3.5,3.2h-.6a4.1,4.1,0,0,1,3.8,2.6c5.2,12.2.5,33.8.3,34.7a4.4,4.4,0,0,1-4.1,3.3Z" class="cls-4"></path><path d="M519.1,837.9c11.5,0,20.6.8,22.2,3,4.8,6.6-2,35-2,35-19.8,2.8-35.8,20.6-35.8,20.6,9.9-9.4,35.8-12.1,35.8-12.1,4.6,11.1,0,32.2,0,32.2H471.1c-3-14.2-1.2-35-1.2-35,19.5-5.2,30.8-22.7,30.8-22.7-9.3,9.5-31.7,13.5-31.7,13.5l-5-31.5s32.2-3,55.1-3m0-8.4c-23,0-54.5,2.9-55.9,3a8.7,8.7,0,0,0-5.9,3.2,8.4,8.4,0,0,0-1.6,6.5l4.9,31.6a9.3,9.3,0,0,0,1.8,3.9,8.5,8.5,0,0,0-.9,3.2c-.1.9-1.9,22.2,1.3,37.4a8.5,8.5,0,0,0,8.3,6.7h68.2a8.4,8.4,0,0,0,8.2-6.6c.5-2.4,5.1-24-.5-37.2a3.1,3.1,0,0,0-.5-1,9.4,9.4,0,0,0,1-2.3c0-.3,1.8-7.6,3-15.8,1.9-13.5,1.2-21.3-2.4-26.2s-8.4-6.4-29-6.4Z" class="cls-2"></path><path d="M551.6,885.1a3.7,3.7,0,0,1-1.5-.3c-20.9-8.1-45-56-47.7-61.4a4.3,4.3,0,0,1,3.7-6.1c42-1.7,69.6-13.5,82.3-35.3s5.2-50.2,3.4-53.7-12.1-22.4-12.5-23.2a4.3,4.3,0,0,1,.9-5.1,4.4,4.4,0,0,1,2.9-1.1,4.8,4.8,0,0,1,2.3.7c.1.1,12.9,8.4,26.8,17.7,18,12.2,8.3,87.8-.4,115.2-10.4,32.3-56.7,51.5-58.6,52.3A4.5,4.5,0,0,1,551.6,885.1Z" class="cls-3"></path><path d="M583.1,703.2s12.7,8.2,26.7,17.6,7.8,79.5-2,110.4-56.2,49.6-56.2,49.6c-20-7.7-45.4-59.3-45.4-59.3,120.2-4.8,91.7-91.6,89.2-95.4s-12.3-22.9-12.3-22.9m0-8.5a8.7,8.7,0,0,0-5.7,2.2,8.4,8.4,0,0,0-1.8,10.1c1,2,9.6,18.6,12.5,23.2a68.7,68.7,0,0,1,3.5,18.4c.6,12.3-1.9,23.1-7.4,32.2-12.2,19.8-38.5,30.7-78.3,32.3a8.4,8.4,0,0,0-7.2,12.2,301.3,301.3,0,0,0,15.6,27.5c12.9,20.3,24.1,32,34.2,35.9a8.1,8.1,0,0,0,3.1.6,9.1,9.1,0,0,0,3.2-.6c2-.9,50-20.7,61-54.9,5.2-16.2,9.4-42.5,10.5-65.4.6-12.6.2-23.3-1.1-31.9-1.7-11.7-5.1-18.9-10.7-22.7-13.9-9.3-26.7-17.6-26.8-17.7a8.6,8.6,0,0,0-4.6-1.4Z" class="cls-2"></path><path d="M455.4,885.1a4.1,4.1,0,0,1-1.6-.3c-2-.8-48.3-20-58.6-52.3-9.3-29.1-15.2-98.1-.3-112.8,11.9-11.7,30.9-20.1,31.7-20.4a5.3,5.3,0,0,1,1.7-.4,4.3,4.3,0,0,1,3.8,6.2c-.4.7-8.8,17.4-11.4,21.3s-12.2,33.1,1.1,56.9c11.8,20.9,38.4,32.4,79.1,34a4.7,4.7,0,0,1,3.5,2.1,4.1,4.1,0,0,1,.1,4c-2.7,5.4-26.7,53.3-47.6,61.4A4,4,0,0,1,455.4,885.1Z" class="cls-3"></path><path d="M428.3,703.2s-8.7,17.1-11.1,21-36.7,92.5,83.5,97.3c0,0-25.4,51.6-45.3,59.3,0,0-46.3-18.8-56.2-49.6s-13.7-96.3-1.4-108.5,30.5-19.5,30.5-19.5m0-8.5a10.3,10.3,0,0,0-3.4.7c-.8.4-20.5,9-33,21.3-7.6,7.5-11,25.5-10.1,53.5.6,23.2,4.3,47.6,9.4,63.6,10.9,34.2,59,54,61,54.9a8.7,8.7,0,0,0,3.2.6,8,8,0,0,0,3-.6c10.2-3.9,21.4-15.6,34.3-35.9,9-14.1,15.3-27,15.6-27.5a8.3,8.3,0,0,0-.3-8.1,8.6,8.6,0,0,0-6.9-4.1c-38.7-1.5-63.9-12-75.2-31.2-12.5-21.4-3.8-48.6-1.4-53.5s10.4-19.7,11.3-21.4a8.3,8.3,0,0,0-1.4-9.6,8,8,0,0,0-6.1-2.7Zm0,16.9Z" class="cls-2"></path><path d="M571.5,1030.2a4.3,4.3,0,0,1-4.3-4c-2.2-51.6-3.8-105.8-4.8-161.1a4.3,4.3,0,0,1,1-2.9c.2-.1,14.7-17.2,27.2-42.4l.6-1.2c8.1-16.6,13.5-33,16-48.7,3.3-20.6,1.6-39.9-5-57.5a4.4,4.4,0,0,1,.5-4,4.2,4.2,0,0,1,3.4-1.7h.2c2.4.1,23.8,1.3,31.7,11.6a4.1,4.1,0,0,1,.8,1.9l.3,2.3c1.2,9.7,6.1,60.6-12.5,103.5-7.5,17.2-18,31.2-31.1,41.6.1,11.5.4,69.6,3.4,149.3l.3,7.9v1a3.9,3.9,0,0,1-1.1,3.1,4,4,0,0,1-3.1,1.3Z" class="cls-1"></path><path d="M606.1,710.9s21.6.9,28.6,9.9c0,0,.1.8.2,2.2,1.3,10.6,5.9,59.7-12.2,101.3-6.8,15.6-16.8,30.2-31.4,41.3,0,0,0,61.6,3.4,151.5l.3,8.9H571.5c-2.2-49.7-3.9-103.2-4.9-161a224.4,224.4,0,0,0,27.8-43.3l.6-1.2c7.1-14.5,13.5-31.6,16.4-50s2.3-39.4-5.3-59.6m0-8.4a8.4,8.4,0,0,0-6.8,3.5,8.3,8.3,0,0,0-1.1,7.9c6.4,16.9,8,35.5,4.8,55.3-2.4,15.3-7.6,31.3-15.6,47.6l-.5,1.1a222.5,222.5,0,0,1-26.7,41.6,8.5,8.5,0,0,0-2,5.7c1,55.3,2.6,109.5,4.8,161.2a8.4,8.4,0,0,0,8.5,8H595a8.6,8.6,0,0,0,6.1-2.5,8.9,8.9,0,0,0,2.4-6.2v-.9l-.3-8c-2.8-75.8-3.3-132-3.4-147.2,13-10.6,23.3-24.8,30.8-42,19-43.8,14-95.7,12.8-105.7l-.3-2.3a8.1,8.1,0,0,0-1.7-3.9c-8.9-11.6-30.6-13-34.8-13.2Z" class="cls-2"></path><path d="M431.7,626.7a125.5,125.5,0,0,1-34.4-4.5c-45.1-12.5-65.5-67.1-66.4-69.4a4.5,4.5,0,0,1,.2-3.4,4.8,4.8,0,0,1,2.9-2.5l1.5-.2a4.9,4.9,0,0,1,4.6,3.1c.2.5,19.7,52.4,59.9,63.6a117.6,117.6,0,0,0,31.7,4,129.2,129.2,0,0,0,20.3-1.5h1a4.8,4.8,0,0,1,4.7,3.6,4.1,4.1,0,0,1-.6,3.4,4.7,4.7,0,0,1-3.2,2.1A124.4,124.4,0,0,1,431.7,626.7Z" class="cls-1"></path><path d="M335.5,548.3a3.3,3.3,0,0,1,3.1,2.1c.2.5,19.9,53.1,61,64.6a120.2,120.2,0,0,0,32.1,4.1,126,126,0,0,0,20.6-1.6h.7a3.1,3.1,0,0,1,3.1,2.4,2.9,2.9,0,0,1-2.5,3.5,132,132,0,0,1-21.9,1.7,128,128,0,0,1-34-4.3c-44.3-12.4-64.4-66.1-65.2-68.4a2.9,2.9,0,0,1,2-3.8l1-.2m0-3.2-2,.3a6.1,6.1,0,0,0-3.8,3.2,5.8,5.8,0,0,0-.3,4.8c.9,2.3,21.6,57.6,67.4,70.4a129.8,129.8,0,0,0,34.9,4.5,127.3,127.3,0,0,0,22.5-1.8,6,6,0,0,0,4.2-2.8,5.4,5.4,0,0,0,.9-4.6,6.3,6.3,0,0,0-6.3-4.9h-1.3a125.9,125.9,0,0,1-20,1.5,114.6,114.6,0,0,1-31.3-4c-39.2-10.9-58.6-62-58.7-62.5a6.6,6.6,0,0,0-6.2-4.2Z" class="cls-2"></path><circle r="13.6" cy="622.4" cx="452.6" class="cls-1"></circle><path d="M452.6,611a11.5,11.5,0,1,1-11.5,11.4A11.4,11.4,0,0,1,452.6,611m0-4.4a15.8,15.8,0,1,0,15.8,15.8,15.9,15.9,0,0,0-15.8-15.8Z" class="cls-2"></path><path d="M670.2,453.9a4.6,4.6,0,0,1-3.5-1.7,4.4,4.4,0,0,1-.2-4.8c.1-.3,7.7-13.4,2.5-28.4a5,5,0,0,1-.2-1.2,40.3,40.3,0,0,1-13.9,11.7,4.1,4.1,0,0,1-1.9.5,4.3,4.3,0,0,1-2.7-1,4.4,4.4,0,0,1-1.5-4.5,116.8,116.8,0,0,0,2.6-13.6c2.2-16.3,3.2-44.6-11.6-65.6-.5,19.5-4.6,56.9-29.3,71.5a4.6,4.6,0,0,1-2.2.6,4,4,0,0,1-2.4-.7,4.4,4.4,0,0,1-1.9-4.2,193.9,193.9,0,0,0-1.2-53.9c-.3,2.4-.8,4.9-1.3,7.4-5.4,25.1-20.2,40.2-42.6,43.6h-.7a4.2,4.2,0,0,1-3.4-1.7,4.3,4.3,0,0,1-.5-4.5c.1-.2,10-21,3.8-36.7a4.1,4.1,0,0,1,.4-4s.8-1.2,2-3.3c-17,24.2-39.8,40.7-66,47.7l-1.1.2a4.4,4.4,0,0,1-3.8-6.5s1.8-3.3,4.5-8.7l.2-.3c5.2-10.4,14.9-31.1,21.6-53.1,9-29.1,9.7-51.1,2.2-63.6-4.1-6.6-10.5-10.7-19.6-12.4a22.2,22.2,0,0,0-4.3-.4c-17.1,0-20.3,23-20.4,23.2a4.2,4.2,0,0,1-4.2,3.8h-.2a4.5,4.5,0,0,1-4.2-4.1,29.5,29.5,0,0,0-3.5-11.3c-4-6.9-10.5-10.4-19.4-10.4a50.2,50.2,0,0,0-12.5,1.8c-8.2,2.2-13.8,8.6-16.7,19.1-9.1,32.9,11.4,95.3,33.3,117.9a4.4,4.4,0,0,1,.7,5.2,4.5,4.5,0,0,1-3.8,2.1h-1.1c-1.1-.3-27.5-7.6-51.2-35.7a.1.1,0,0,0-.1-.1h0a140.4,140.4,0,0,1-24.1-41.9c-1.6,20.3-.7,52.2,17.2,72.1a4.3,4.3,0,0,1,.9,4.3,4.4,4.4,0,0,1-3.4,2.9h-2.7a33.6,33.6,0,0,1-9.1-1.3l-3-1.1h-.2c-8.1-3.3-19.5-11.1-29-30,2.9,14.3,7.6,30,15.1,43.4l.2.3c.5.9,1,1.8,1.6,2.7a4.5,4.5,0,0,1,0,4.5,4.4,4.4,0,0,1-3.7,2.1h-.4c-1-.1-22.2-2.1-34-17.5a2.1,2.1,0,0,1,.4.6,4.3,4.3,0,0,1-3.7,6.5h-.3a27.8,27.8,0,0,0-12,2.9,14.3,14.3,0,0,0-2.4,1.6c-3.2,2.7-4.8,6.4-4.6,11.5a4.3,4.3,0,0,1-3.6,4.3h-.8a4.4,4.4,0,0,1-4.1-3c-.3-.9-7.4-23.1,1.1-60.9a4.5,4.5,0,0,1,1.4-2.4,49.8,49.8,0,0,0,6.6-7.5c-14,13.9-32,21.2-52.5,21.3h-.4a4.4,4.4,0,0,1-4.1-2.8,4.4,4.4,0,0,1,1.1-4.7c.4-.3,35.6-34,38.3-113.6a155.8,155.8,0,0,1,6.4-38.1c15.8-53.4,61.1-111,123.2-111a99.6,99.6,0,0,1,12.1.8,186.3,186.3,0,0,1,25.3,4.6h.3c23.2,6,28.7,13.9,29.6,15.4a4.8,4.8,0,0,1,.3,3.7l-.3.7c10.3-15.8,31.8-32.5,76.8-32.5,5.1,0,10.5.2,16,.6,15.1,1.2,27.1,6.3,38.7,11.3,13.6,5.8,26.5,11.3,44.4,11.3,10.9,0,22.6-2,35.6-6.2a3.4,3.4,0,0,1,1.4-.2,4.6,4.6,0,0,1,2.7.9,4.5,4.5,0,0,1,1.6,3.8c-.1.7-1.4,13.6-14.1,24.6,10.2,8.3,49.4,44.3,60,119.5,0,.1.1.2.1.3h0a279.4,279.4,0,0,1,2.4,28.2h0c1.3,37.5-4.7,78.7-17.9,122.4a4.5,4.5,0,0,1-4,3.2h-.1a4.3,4.3,0,0,1-4.1-2.7c-.2-.4-1.9-3-6.9-3.7l-2.1-.2h-.7l-2.7.2h-.5a4,4,0,0,1-2.9-1.2l-.3-.2c-3.6,12.9-11,25.9-25.7,29.9Z" class="cls-12"></path><path d="M550.4,116.2c4.9,0,10.1.2,15.7.6,31.1,2.4,48.5,22.7,83.4,22.7,10.5,0,22.5-1.9,37-6.5,0,0-1.8,19.7-26.3,30a31.7,31.7,0,0,0,11.6-3.3s48.8,34.5,60.7,118.6h0c1.2,8.7,2,18,2.4,27.8h0c1.2,33.6-3.5,73.8-17.8,121.1,0,0-2.1-5.2-10.3-6.3l-2.7-.2h-.7l-3.2.2a78.1,78.1,0,0,0-4-27.1s2.3,48-26,55.7c0,0,8.9-14.7,2.9-32,0,0,7.7-22.5,6-35a82.9,82.9,0,0,1-4.5,16,62.2,62.2,0,0,1-9.1,16.4A35.8,35.8,0,0,1,653,425.6a123.9,123.9,0,0,0,2.7-14.2c2.7-19.7,3.4-55.4-20.5-77.9,0,0,4.5,61-26.9,79.6,0,0,6.8-47.2-9.8-84.3.4,2.4,9.7,68.9-40.3,76.5,0,0,10.9-22.5,3.9-40.2,0,0,16.1-23.9,12.7-43,0,0-19.1,64.1-81.4,80.8,0,0,1.9-3.4,4.7-9.2h0c5.7-11.4,15.3-31.9,22-53.7,11-35.9,14.2-75.1-20.8-81.6a31.4,31.4,0,0,0-5.1-.5c-21.1,0-24.6,27-24.6,27s-1.5-25.7-27.3-25.7a56.6,56.6,0,0,0-13.6,1.9c-42.7,11.5-15.6,113.1,14.6,144.2,0,0-25.9-6.9-49-34.4h-.1c-11.6-13.8-22.5-32.9-29.1-58.9,0,0-13.9,61.9,15.7,94.8h-2a27.8,27.8,0,0,1-7.9-1.2,19,19,0,0,1-2.8-1h0c-8.4-3.3-19.5-11.6-28.6-31.6-4.3-9.6-8.2-22-11.1-37.8,0,0-.3,52.3,20.4,89h0c.6,1.1,1.3,2.1,1.9,3.1s-28.8-2.3-36.1-25.9h0a38.1,38.1,0,0,1-1.6-10c-.4,1.7-.8,3.2-1.2,4.6h0c-2.3,8.6-3.3,13.4,1.2,21h-.3a31.2,31.2,0,0,0-14.1,3.4,28.2,28.2,0,0,0-3.1,2.1c-3.6,3-6.3,7.7-6.2,14.9,0,0-7.1-21.6,1.2-58.7,0,0,6.1-5.2,12.2-15.6a87.2,87.2,0,0,0,7.3-16.4h0a88,88,0,0,0,4.2-21.6S300,384.7,241.7,385h-.3s36.9-33.9,39.6-116.7a150.3,150.3,0,0,1,6.3-36.9c15.9-53.7,60.4-107.9,119-107.9a92.5,92.5,0,0,1,11.6.7,189.8,189.8,0,0,1,24.9,4.5h.1c22.6,5.9,26.9,13.5,26.9,13.5s-6.3,16.8-1.6,34.6a52.8,52.8,0,0,1,2.6-16.3h0c5.8-18,23.7-44.2,79.6-44.2M686.5,133h0M550.4,107.5c-40.5,0-62.8,13.2-75.2,27.6-3.5-3.8-11.7-9.9-30.1-14.7l-.5-.2a192.9,192.9,0,0,0-25.7-4.6,106.6,106.6,0,0,0-12.6-.8c-29.4,0-57.6,12.6-81.6,36.3-20.7,20.6-36.9,48.2-45.7,77.8a154.7,154.7,0,0,0-6.6,39.1c-1.4,40.6-11.4,68.5-19.5,84.8s-17.3,25.7-17.4,25.8a8.5,8.5,0,0,0-2.2,9.5,8.7,8.7,0,0,0,8.1,5.5h.3a79.1,79.1,0,0,0,38.9-9.8c-6.4,34.8.2,55.5.5,56.4a8.7,8.7,0,0,0,8.2,5.9h1.5a8.6,8.6,0,0,0,7.2-8.7c-.1-4.9,1.7-6.9,3-8a.1.1,0,0,0,.1-.1,9.1,9.1,0,0,1,1.6-1.1h.1a22.4,22.4,0,0,1,9.9-2.4h.4a8.2,8.2,0,0,0,5.9-2.4c13,11.1,30,12.7,31,12.8h.7A8.3,8.3,0,0,0,358,432a8.6,8.6,0,0,0,.1-9l-1.5-2.6c-.1-.1-.1-.2-.2-.4a120.1,120.1,0,0,1-8.4-18.6,51.6,51.6,0,0,0,16.9,11.4h.3l3.3,1.1a36.3,36.3,0,0,0,10.3,1.6,15.9,15.9,0,0,0,3.4-.3,8.6,8.6,0,0,0,6.8-5.6,8.9,8.9,0,0,0-1.7-8.7c-12.2-13.5-16-32.9-16.7-50a136.4,136.4,0,0,0,17,25.5h0a.1.1,0,0,1,.1.1c24.6,29.2,52.2,36.8,53.4,37.1a8.3,8.3,0,0,0,2.2.3,8.8,8.8,0,0,0,7.5-4.3,8.6,8.6,0,0,0-1.3-10.4c-10.1-10.4-20.5-30.9-27.2-53.3-7.2-24-9-46-5-60.5,2.5-9,6.9-14.2,13.6-16a45.7,45.7,0,0,1,11.4-1.7c7.3,0,12.3,2.6,15.5,8a24.6,24.6,0,0,1,3.1,9.7,8.7,8.7,0,0,0,8.3,8.2h.4a8.6,8.6,0,0,0,8.5-7.6,35.5,35.5,0,0,1,3.7-11c4.1-7.6,9-8.5,12.4-8.5l3.5.3c7.9,1.5,13.3,4.9,16.7,10.5,6.9,11.3,6,32.1-2.6,60.1-6.7,21.7-16.3,42.1-21.4,52.4l-.2.3c-2.6,5.3-4.4,8.5-4.4,8.5a8.7,8.7,0,0,0,7.6,12.9,8.3,8.3,0,0,0,2.2-.3c23-6.2,43.4-19.3,59.7-38.2,1.9,10.9-2.7,23.8-4.9,28.5a8.9,8.9,0,0,0,.9,8.9,8.6,8.6,0,0,0,6.9,3.5h1.3c13.6-2.1,24.6-8.1,32.8-17.9a57.1,57.1,0,0,0,8.6-13.9,179.6,179.6,0,0,1-1.2,29.8,8.6,8.6,0,0,0,3.8,8.4,8.3,8.3,0,0,0,4.8,1.5,8,8,0,0,0,4.4-1.3c15.3-9,25.2-26.8,29.4-52.8.4-2.4.7-4.7.9-7,6.8,17.5,5.8,37.2,4.1,49.6a118.6,118.6,0,0,1-2.4,13.1,8.4,8.4,0,0,0,2.8,8.9,8.7,8.7,0,0,0,5.5,2,8.9,8.9,0,0,0,3.9-.9,42.7,42.7,0,0,0,9.5-6.6,32.4,32.4,0,0,1-3.6,18.3,8.6,8.6,0,0,0,.4,9.7,8.8,8.8,0,0,0,6.9,3.4,9.9,9.9,0,0,0,2.4-.3c14.7-3.9,22.8-15.8,27.2-28.3h1.5l2.2-.2h2.2a6,6,0,0,1,3.8,1.5,8.4,8.4,0,0,0,7.7,4.8h.5a8.7,8.7,0,0,0,7.8-6.1c13.3-44.2,19.4-85.8,18.1-123.8h0a262.2,262.2,0,0,0-2.4-28.7h0a.8.8,0,0,1-.1-.4c-6.4-45-23.3-76.2-36.3-94.4a152.1,152.1,0,0,0-21.6-24.6c9.6-10.1,11.6-20.9,11.9-23.5a5.7,5.7,0,0,0,.1-1.3,8.7,8.7,0,0,0-8.6-8.7h-.3a10.9,10.9,0,0,0-2.6.5c-12.5,4-23.7,6-34.1,6-17,0-29.5-5.3-42.7-11s-24.3-10.4-40-11.6c-5.7-.4-11.2-.7-16.4-.7Z" class="cls-2"></path><path d="M463.8,152.1a5.3,5.3,0,0,1-.6,1l-.6,1.1-1.2,2.3c-.8,1.5-1.5,3.1-2.2,4.6-1.4,3.2-2.7,6.4-3.9,9.7a140.2,140.2,0,0,0-5.5,20.2c-.2.9-.4,1.8-.5,2.6l-.4,2.6c-.3,1.8-.6,3.5-.8,5.3-.3,3.5-.7,7-.7,10.6v2.6a24.4,24.4,0,0,0-.1,2.7l.2,5.3c0,1.8.2,3.5.3,5.3l.5,5.3-1-5.2c-.3-1.8-.7-3.5-.9-5.3l-.7-5.3a24.5,24.5,0,0,1-.2-2.7l-.2-2.7c-.3-3.6-.3-7.2-.3-10.8,0-1.8.1-3.6.2-5.4v-2.8l.3-2.7a132.2,132.2,0,0,1,3.6-21.5q1.3-5.2,3-10.5c.7-1.8,1.2-3.5,1.9-5.2s.7-1.8,1.1-2.6.3-.9.5-1.3a9.1,9.1,0,0,1,.7-1.4h0a4.4,4.4,0,0,1,7.8,3.9Z" class="cls-13"></path><path d="M551.4,240.3c.1,93.3-36.6,138-53.3,153.4,5.7-11.4,15.3-31.9,22-53.7C546.5,295.5,551.4,240.3,551.4,240.3Z" class="cls-13"></path><path d="M442.9,128.7c-1.7-.2-82.7-11.7-132.9,68.5-8.6,13.8-16.1,25-22.7,34.2,16.9-57.2,66.3-115,130.6-107.2A191.7,191.7,0,0,1,442.9,128.7Z" class="cls-13"></path><path d="M295.5,422.6c-3.6,3-6.3,7.7-6.2,14.9,0,0-7.1-21.6,1.2-58.7,0,0,6.1-5.2,12.2-15.6C295.3,384.8,294.4,409,295.5,422.6Z" class="cls-13"></path><path d="M313,417.1a32.5,32.5,0,0,0-14.4,3.4c2.1-10.7,6.2-26.8,13.8-37.2a86.6,86.6,0,0,0-.6,12.8h0C309.5,404.7,308.5,409.5,313,417.1Z" class="cls-13"></path><path d="M241.7,385c16.1-6.7,56.7-28.2,74.3-81.3,0,0,11.2,13.2-6,43a88,88,0,0,0,4.2-21.6S300,384.7,241.7,385Z" class="cls-13"></path><path d="M348.8,424.3c.6,1.1,1.3,2.1,1.9,3.1s-28.8-2.3-36.1-25.9h0c-.5-11.4.5-27.2,8.2-36.6,0,0-.4,43.4,26,59.4Z" class="cls-13"></path><path d="M335.1,294.8s1.1,73.4,33,109.9c-8.4-3.3-19.5-11.6-28.6-31.6C334.2,348.4,330.7,319.3,335.1,294.8Z" class="cls-13"></path><path d="M380.8,406.8a23.3,23.3,0,0,1-9.9-1.1c-6.5-13.9-24.9-62-3.8-127.3,0,0,7.3,55.7,27.1,92.5-11.6-13.8-22.5-32.9-29.1-58.9C365.1,312,351.2,373.9,380.8,406.8Z" class="cls-13"></path><path d="M732.5,278.3c-29.9-120.5-95-109.6-98-109.1,9.2-2.4,22.6-19,22.6-19-25.6,6.6-21-.4-79.1-17.2-71.8-20.8-107.2,27.6-107.2,27.6h0c6.3-19.6,26.9-48.9,95.3-43.6,40.4,3.2,57.7,36.4,120.4,16.2,0,0-1.8,19.7-26.3,30a31.7,31.7,0,0,0,11.6-3.3S720.6,194.2,732.5,278.3Z" class="cls-13"></path><path d="M239.8,380.9l.7-.2.8-.4,1.6-.8,3.3-1.7a62.9,62.9,0,0,0,6.4-4.1,91.6,91.6,0,0,0,11.8-9.8,130.2,130.2,0,0,0,19.5-24.1,180.5,180.5,0,0,0,14.2-28.1,225.6,225.6,0,0,0,9.6-30.2,217.7,217.7,0,0,1-7.6,30.9,166.4,166.4,0,0,1-12.5,29.5,135.4,135.4,0,0,1-18.5,26.5,106.9,106.9,0,0,1-11.9,11.4l-6.7,4.9-3.6,2.2L245,388l-1,.5-1.1.5h-.1a4.3,4.3,0,0,1-3.4-8Z" class="cls-2"></path><path d="M349,431.4l-1.5-.8-1.3-.8-2.3-1.7c-.8-.5-1.5-1.2-2.3-1.8l-2.1-1.9a71.1,71.1,0,0,1-7.2-8.4,74.1,74.1,0,0,1-9.9-19.4c-.6-1.7-1.2-3.4-1.7-5.1l-1.3-5.2a19.7,19.7,0,0,1-.7-2.6l-.4-2.6-.9-5.2c-.5-3.5-.8-7-1.1-10.5l-.3-10.6,1.4,10.4c.7,3.5,1.3,6.9,2.1,10.3l1.4,5,.7,2.5.9,2.4,1.7,4.9c.7,1.6,1.5,3.1,2.2,4.7a70.9,70.9,0,0,0,10.9,16.9,57.5,57.5,0,0,0,7.2,6.8l2,1.4,2,1.4,2,1.1,1,.5.8.3a4.4,4.4,0,0,1,3.4,5.2,4.4,4.4,0,0,1-5.2,3.4l-.9-.3Z" class="cls-2"></path><path d="M378.8,410.6l-1.2-.7-1-.7-1.8-1.5a32.7,32.7,0,0,1-3.5-3,76.9,76.9,0,0,1-6.2-6.6,91,91,0,0,1-9.9-14.8,116.1,116.1,0,0,1-11.4-33.1,166.7,166.7,0,0,1-2.6-34.5,244.7,244.7,0,0,1,3.5-34.2,230.2,230.2,0,0,0-1.3,34.2,163.8,163.8,0,0,0,4.6,33.6,111.5,111.5,0,0,0,12.8,30.8,83.3,83.3,0,0,0,10,13,51.2,51.2,0,0,0,5.9,5.5l3.1,2.5,1.6,1,.8.5.7.4a4.4,4.4,0,0,1,2.1,5.8,4.4,4.4,0,0,1-5.8,2.1l-.3-.2Z" class="cls-2"></path><path d="M440.8,408.8a38.4,38.4,0,0,1-3.6-3.1l-3.4-3.1c-2.2-2.1-4.3-4.2-6.3-6.4a167.5,167.5,0,0,1-11.6-13.9,161.4,161.4,0,0,1-18.2-31,142.2,142.2,0,0,1-6.2-16.9l-1.2-4.3-.5-2.1-.5-2.2c-.3-1.5-.7-2.9-.9-4.4l-.7-4.4c-.3-1.5-.4-3-.6-4.4s-.4-3-.5-4.5a87.2,87.2,0,0,1-.3-8.9,131.2,131.2,0,0,1,.9-17.7,149.3,149.3,0,0,0,.1,17.7c.2,2.9.6,5.8.9,8.7s.5,2.9.8,4.4a32.5,32.5,0,0,0,.8,4.3l1,4.3c.3,1.4.7,2.8,1.1,4.2l.6,2.1.7,2.1c.5,1.4.9,2.8,1.4,4.1a151.9,151.9,0,0,0,7,16A148.4,148.4,0,0,0,421,378.2a129.3,129.3,0,0,0,11.9,12.6c2,2,4.2,4,6.4,5.8l3.3,2.7,3.3,2.5h0a4.2,4.2,0,0,1,1.1,6,4.3,4.3,0,0,1-6,1.1Z" class="cls-2"></path><path d="M491,399.3l1.7-1.1,1.7-1.3c1.2-.8,2.3-1.7,3.4-2.6s4.5-3.6,6.7-5.6a144,144,0,0,0,12.2-12.5,146.8,146.8,0,0,0,19.7-29,156.8,156.8,0,0,0,7-16.3,143,143,0,0,0,4.8-17,150.7,150.7,0,0,0,2.9-35.5,153.3,153.3,0,0,1-.8,35.8,133,133,0,0,1-3.9,17.7,128.8,128.8,0,0,1-6.1,17.1,147.4,147.4,0,0,1-18.5,31.3,160.6,160.6,0,0,1-12.1,13.9q-3.1,3.3-6.6,6.3l-3.5,3.1-1.9,1.4-1.9,1.5a4.3,4.3,0,1,1-5.1-7l.2-.2Z" class="cls-2"></path><path d="M555.1,402.3l.6-.6.7-.7,1.2-1.4,2.5-3c1.6-2,3.1-4.1,4.6-6.3a144,144,0,0,0,8-13.7,161.6,161.6,0,0,0,11.5-29.7c1.4-5.2,2.6-10.4,3.6-15.7s1.8-10.6,2.3-15.9a233.9,233.9,0,0,0,1-32.4,234.9,234.9,0,0,1,1.1,32.5c-.1,5.5-.6,10.9-1.2,16.3s-1.5,10.8-2.6,16.2a169.2,169.2,0,0,1-9.9,31.5,121.5,121.5,0,0,1-7.4,14.9c-1.4,2.4-2.9,4.8-4.5,7.1l-2.5,3.5-1.3,1.7-.7.8a3.2,3.2,0,0,1-.8.9h0a4.4,4.4,0,0,1-6.4-5.9Z" class="cls-2"></path><path d="M604.5,411c.5-.9,1.2-2.2,1.7-3.3s1.1-2.4,1.7-3.5,1-2.5,1.5-3.7a27.5,27.5,0,0,0,1.5-3.6l1.4-3.8,1.3-3.7c.9-2.5,1.6-5.1,2.4-7.6a240.6,240.6,0,0,0,6.8-31.4c.7-5.3,1.5-10.6,1.9-16,.2-2.7.5-5.4.7-8.1l.3-8c.1-1.4.2-2.7.2-4.1V302.1c0-1.4-.1-2.7-.1-4.1l-.2-4-.4-8.1.9,8,.5,4.1c.1,1.3.3,2.7.4,4l.5,8.1.3,4.1c0,1.4,0,2.7.1,4.1l.2,8.1c0,2.7-.1,5.5-.2,8.2,0,5.4-.4,10.9-.8,16.3a240.4,240.4,0,0,1-4.8,32.5c-.6,2.6-1.2,5.3-2,8l-1,4-1.2,3.9c-.4,1.4-.9,2.7-1.3,4l-1.4,3.9-1.5,4-1.8,4a4.3,4.3,0,0,1-5.8,1.9,4.2,4.2,0,0,1-2-5.7v-.3Z" class="cls-2"></path><path d="M649.5,423.2l.7-1.1a12.5,12.5,0,0,0,.8-1.2l1.5-2.4c.5-.9,1-1.7,1.4-2.6a21.5,21.5,0,0,0,1.4-2.6l1.3-2.6,1.2-2.8,1.2-2.7,1.1-2.8a149,149,0,0,0,6.5-23.1,117.7,117.7,0,0,0,1.8-11.9c.2-2,.5-4,.7-6.1l.3-6V343.1c0-1-.1-2-.1-3.1l-.2-3-.4-6.1.9,6,.5,3.1c.1,1,.3,2,.4,3l.5,6.1.3,3.1v3.1l.3,6.1c0,2.1-.1,4.2-.1,6.2,0,4.1-.5,8.2-.8,12.4a149.1,149.1,0,0,1-4.7,24.5l-.8,3c-.3,1-.7,2-1,3s-.7,2-1,3l-1.2,2.9-1.2,3c-.4.9-.8,1.9-1.3,2.9s-.9,1.9-1.5,2.9l-.8,1.4a8.5,8.5,0,0,1-.9,1.5h0a4.3,4.3,0,1,1-7.3-4.7Z" class="cls-2"></path><path d="M666.9,446.8l.6-.7.6-.7a18.3,18.3,0,0,0,1.3-1.6l2.5-3.3c.8-1.2,1.6-2.3,2.3-3.5s1.5-2.3,2.2-3.6,1.4-2.4,2-3.7l1.9-3.7,1.7-3.9c.5-1.3.9-2.7,1.4-4l.8-2,.6-2c.4-1.4.8-2.7,1.1-4.1a83.3,83.3,0,0,0,1.7-8.4,89.4,89.4,0,0,0,.9-17.2,91.5,91.5,0,0,1,1.2,17.4,66.2,66.2,0,0,1-.6,8.8c-.1,1.5-.4,2.9-.6,4.4a14.3,14.3,0,0,0-.4,2.2l-.5,2.1c-.3,1.4-.6,2.9-1,4.3l-1.3,4.3-1.4,4.2c-.5,1.4-1.1,2.8-1.7,4.2s-1.2,2.7-1.8,4.1-1.3,2.7-2,4l-2.3,4-1.2,2-.7.9-.7,1.1h-.1a4.3,4.3,0,0,1-6.1.8,4.2,4.2,0,0,1-.8-6A1,1,0,0,1,666.9,446.8Z" class="cls-2"></path><path d="M707.1,420.7c1.6-4.1,3.2-8.5,4.5-12.8l2.1-6.5,1.8-6.6c2.4-8.9,4.4-17.8,6-26.8a230.4,230.4,0,0,0,3.4-27.4l.4-6.9c.1-2.3.1-4.6.1-6.9v-3.4l-.2-3.5-.2-6.9.8,6.9.4,3.4.2,3.5c.2,2.3.3,4.6.5,6.9v7a234.2,234.2,0,0,1-1.3,27.8c-.9,9.3-2.2,18.6-3.9,27.7l-1.4,6.9c-.5,2.3-1,4.6-1.6,6.8s-1.1,4.6-1.7,6.9-1.2,4.5-1.9,6.8a4.3,4.3,0,0,1-8.3-2.5c0-.1.1-.2.1-.3Z" class="cls-2"></path><path d="M465.3,154.2a51.1,51.1,0,0,0-4.7-2l-4.9-1.7c-3.3-1.2-6.7-2.1-10.1-3a144.5,144.5,0,0,0-20.7-3.6,119,119,0,0,0-42,3.5,111.5,111.5,0,0,0-37.8,19.1A145.9,145.9,0,0,0,316,198.1a147,147,0,0,1,27.7-33.2,112.5,112.5,0,0,1,37.9-21.6,121.9,121.9,0,0,1,43.7-5.8,148.4,148.4,0,0,1,22,2.6c3.6.7,7.2,1.6,10.8,2.6l5.4,1.6,5.4,2a4.3,4.3,0,0,1,2.3,5.7,4.3,4.3,0,0,1-5.6,2.3h-.3Z" class="cls-2"></path><path d="M689.8,135.7l-.8.9-.8.7-1.5,1.4-3.1,2.5a73.9,73.9,0,0,1-6.6,4.2,82.9,82.9,0,0,1-14,6.2,104.9,104.9,0,0,1-29.7,5.3,147.4,147.4,0,0,1-29.7-2,198.9,198.9,0,0,1-28.6-7,202.9,202.9,0,0,0,28.9,4.9,148.9,148.9,0,0,0,29.1-.2,103.4,103.4,0,0,0,27.7-7,76.7,76.7,0,0,0,12.3-6.7,57.5,57.5,0,0,0,5.6-4.1l2.5-2.3,1.1-1.2.5-.6a.9.9,0,0,0,.4-.5,4.4,4.4,0,0,1,7.3,4.8l-.4.5Z" class="cls-2"></path><path d="M665.5,175.6a62,62,0,0,1,6.9,4.4c2.2,1.6,4.3,3.4,6.4,5.2a91.2,91.2,0,0,1,11,12.2,110.1,110.1,0,0,1,15.7,29,149.6,149.6,0,0,1,4.6,15.8,132.2,132.2,0,0,1,1.1,48.9,299,299,0,0,0-3.8-31.9c-.9-5.3-2.1-10.4-3.3-15.5-.8-2.6-1.4-5.1-2.2-7.6s-1.6-5-2.5-7.5a145.2,145.2,0,0,0-13.8-28.3,104.5,104.5,0,0,0-9.2-12.9c-1.6-2.1-3.4-4.1-5.2-6.1S667.5,177.4,665.5,175.6Z" class="cls-2"></path><path d="M292.3,428c-.1-3.6,0-7,.2-10.4s.4-6.9.8-10.3a90.4,90.4,0,0,1,1.7-10.2,46.2,46.2,0,0,1,3.3-9.7,37.4,37.4,0,0,0-1.1,10,65.7,65.7,0,0,0,.5,9.9c.3,3.3.7,6.6,1.3,9.9s1.2,6.6,1.9,9.7h0a4.4,4.4,0,0,1-8.5,2C292.4,428.6,292.3,428.3,292.3,428Z" class="cls-2"></path><path d="M664.1,313c9,22.7,3.7,81.6,1.4,102A35.8,35.8,0,0,1,653,425.6a123.9,123.9,0,0,0,2.7-14.2C665.6,376.7,664.1,313,664.1,313Z" class="cls-13"></path><path d="M700.3,343.4c5.6,12.5,4.4,60.4,3.8,77.4a26.8,26.8,0,0,0-3.9.2,78.1,78.1,0,0,0-4-27.1s2.3,48-26,55.7c0,0,8.9-14.7,2.9-32,0,0,7.7-22.5,6-35a82.9,82.9,0,0,1-4.5,16c6.8-26.6,11.9-65.7,11.9-65.7,7.5,16.4-4.7,100.8-4.7,100.8C695.2,419,700.3,343.4,700.3,343.4Z" class="cls-13"></path><path d="M717.1,427.3s-2.1-5.2-10.3-6.3c12.1-28,26.3-105.2,28.1-114.8C736.1,339.8,731.4,380,717.1,427.3Z" class="cls-13"></path><path d="M322.8,461.7c-.3,6.6-.3,13.1-.1,19.6,0,1.6.1,3.2.2,4.8a40.3,40.3,0,0,0,.3,4.9c.1,3.2.4,6.4.7,9.7s.6,6.4,1,9.6l.6,4.9c.3,1.6.5,3.2.7,4.8l.4,2.4.4,2.4.7,4.9c.5,3.2,1.1,6.4,1.6,9.6-1.1-3-2.2-6.1-3.1-9.3s-1.8-6.3-2.5-9.5a164.2,164.2,0,0,1-3-19.5q-.4-5-.6-9.9c-.1-1.6-.1-3.3-.1-4.9s.1-3.3.2-5A92.3,92.3,0,0,1,322.8,461.7Z" class="cls-2"></path><path d="M687.1,461.7a99.5,99.5,0,0,1,2.7,19.5c0,1.7.1,3.3.1,5s0,3.3-.1,4.9c0,3.3-.3,6.6-.5,9.9a188.1,188.1,0,0,1-3.1,19.5c-.6,3.2-1.6,6.3-2.4,9.5s-2,6.3-3.2,9.3c.5-3.2,1.1-6.4,1.6-9.6l.8-4.9.4-2.4.3-2.4c.2-1.6.4-3.2.7-4.8l.6-4.9c.4-3.2.7-6.4,1-9.6s.6-6.5.8-9.7c.1-1.6.2-3.3.2-4.9s.2-3.2.2-4.8C687.4,474.8,687.4,468.3,687.1,461.7Z" class="cls-2"></path><path d="M519.4,817.1c2.8,4.6,5.5,9.3,8.2,13.9s5.4,9.1,8.2,13.6,5.8,8.9,9,13.1c1.6,2,3.2,4.1,5,6a61.6,61.6,0,0,0,5.8,5.6c-5.1-2-9.5-5.6-13.3-9.5a78.7,78.7,0,0,1-10.1-12.9,116.6,116.6,0,0,1-7.6-14.4A93,93,0,0,1,519.4,817.1Z" class="cls-2"></path><path d="M490.1,817.1a85,85,0,0,1-5.3,15.4,104.4,104.4,0,0,1-7.6,14.4,78.1,78.1,0,0,1-10,12.9c-3.8,3.9-8.2,7.5-13.3,9.5a60.4,60.4,0,0,0,5.7-5.6c1.8-1.9,3.5-4,5.1-6,3.2-4.2,6.1-8.6,9-13.1s5.5-9,8.2-13.6S487.3,821.7,490.1,817.1Z" class="cls-2"></path><path d="M642.9,1026.1l3.6-47.4,4.9,47.2h0a4.2,4.2,0,0,1-3.8,4.6,4.2,4.2,0,0,1-4.6-3.8A1.7,1.7,0,0,1,642.9,1026.1Z" class="cls-2"></path><path d="M653,198.1a33.5,33.5,0,0,1,8.9,3.9,54.8,54.8,0,0,1,8,5.6,75.8,75.8,0,0,1,13.4,14.3,118.3,118.3,0,0,1,10.2,16.7c1.5,2.9,2.8,5.9,4.1,8.9l1.8,4.5.8,2.3.8,2.3a173.1,173.1,0,0,1,5.3,18.7c.6,3.2,1.3,6.3,1.9,9.5s1,6.4,1.4,9.6a225.6,225.6,0,0,1,1.6,38.5c-2.1-12.7-4.1-25.3-6.6-37.7a301.6,301.6,0,0,0-9.7-36.5,186.9,186.9,0,0,0-6.9-17.5,145.5,145.5,0,0,0-8.9-16.5,44,44,0,0,0-2.6-3.9,21.4,21.4,0,0,0-1.3-1.9l-1.4-1.9-2.9-3.6-3.1-3.5a84.3,84.3,0,0,0-6.9-6.5L659,202a13.3,13.3,0,0,0-1.9-1.4C655.8,199.7,654.4,198.9,653,198.1Z" class="cls-13"></path><path d="M854.7,952.5c0,14-10.5,50.1-22.8,73.5H820.8c5.6-12.6,12.6-31,20.8-57.7,6.1-20.3,8.8-37.3,9.4-51.6C853.7,932.9,854.7,945.8,854.7,952.5Z" class="cls-13"></path><path d="M851,1026a84,84,0,0,0,.1-11.9,49,49,0,0,1-8.6,11.9h-7.6c7-8.1,17.2-22,20.8-38.3,0,0,2.5,20.6,2.7,38.3Z" class="cls-13"></path><polygon points="626.2 1026.1 629.1 956.1 634.6 1025.9 626.2 1026.1" class="cls-13"></polygon><path d="M828.5,920.8h-.7l-19.5-3.1a4.4,4.4,0,0,1-3.5-3.3l-1.3.2h-1.1l-16.1-4.3a4.1,4.1,0,0,1-3-3.2h-2.1l-4.4-.9-16.3-3.6a4.2,4.2,0,0,1-3.3-4.3h-.5l-23.6-6.2a4.2,4.2,0,0,1-3.2-4,4.1,4.1,0,0,1-1.6.3l-1.3-.2-17.9-6.2a4.2,4.2,0,0,1-2.8-3.6H706a3,3,0,0,1-1.3-.2l-19.2-6.6a4.1,4.1,0,0,1-2.8-4.3L664,861.3a4.2,4.2,0,0,1-2.8-5.1c24.1-89.8,4.2-127.6,4-127.9a4.2,4.2,0,0,1,3.7-6.3h1c14.1,3.6,27.8,7.7,40.7,12l.6.2c79.7,26.8,105.9,57,107,58.3a3.7,3.7,0,0,1,.7,1.4c16.1,50,13.9,119.8,13.8,122.7a4.1,4.1,0,0,1-1.6,3.1A3.7,3.7,0,0,1,828.5,920.8Z" class="cls-1"></path><path d="M668.9,726.2c14.8,3.8,28.2,7.8,40.4,11.9h.2c79.8,26.7,105.4,57.1,105.4,57.1,16.1,49.8,13.6,121.3,13.6,121.3l-19.6-3.2c5.3-73.5-10-94.7-10.7-95.6,10.2,23.9,5.3,92.5,5.3,92.5l-16.1-4.2c2.7-23.2-2.1-58.5-5.5-78.9-1.6-9.8-2.9-16.2-2.9-16.2.8,5.1,1.5,10.1,2,14.9,5,44.2,1.1,76.9,1.1,76.9l-4.4-.9-16.3-3.6c6.5-42.1-3.1-93.6-3.8-97.1,8,52.6.2,92.7.2,92.7l-23.7-6.2c8.8-44.6-.2-93.2-.2-93.2,6.8,58-5.6,89.4-5.6,89.4l-17.8-6.2c13.5-52.5-1.1-89.4-1.1-89.4C720,842,706,873.9,706,873.9l-19.1-6.6c15.4-42,7.7-79.5,7.7-79.5.8,55.9-10.7,75.2-10.7,75.2l-18.6-5.7c25-93.1,3.6-131.1,3.6-131.1m-.1-8.4a8.2,8.2,0,0,0-6.7,3.3,8.3,8.3,0,0,0-.6,9.2c.3.7,4.9,9.8,6.7,29s1.2,49.9-11.1,95.8a8.5,8.5,0,0,0,5.7,10.3l16.2,4.9.3.7a8.3,8.3,0,0,0,4.9,4.3l18.9,6.5a8.4,8.4,0,0,0,4.6,3.9l17.9,6.1,1.4.4a8.3,8.3,0,0,0,5,3.7l21.7,5.7a8.4,8.4,0,0,0,5.9,4.9l16.3,3.6,4.4,1h.4a8.3,8.3,0,0,0,4.6,3.1l16,4.3h1a8.3,8.3,0,0,0,5.3,3.1l19.5,3.2h1.4a8.6,8.6,0,0,0,5.3-1.9,8.3,8.3,0,0,0,3.1-6.2c.1-3,2.4-73.5-13.9-124.2a9.7,9.7,0,0,0-1.6-2.8c-1.1-1.3-28-32.4-108.8-59.6l-.7-.2c-13-4.4-26.8-8.4-40.9-12.1l-2.2-.2Z" class="cls-2"></path><path d="M782,902.8l-4.3-1c6.2-31.6,3.9-75.9,3.9-75.9C786.2,870.1,782,902.8,782,902.8Z" class="cls-13"></path><path d="M828.5,916.6l-19.6-3.2c5.3-73.5-10-94.7-10.7-95.6,10.2,23.9,5.3,92.5,5.3,92.5l-16.1-4.2c2.7-23.2-2.1-58.5-5.5-78.9C796.8,848,804.1,899,804.1,899c12.3-34.9-10.3-86.3-10.3-86.3,20.4,19.6,25.2,91.8,25.2,91.8s15.5-66.4-13.6-105.7c-21.5-29-92.1-58.7-95.9-60.6,79.8,26.7,105.4,57.1,105.4,57.1C831,845.1,828.5,916.6,828.5,916.6Z" class="cls-13"></path><path d="M302.7,823.1c.1-.5.1-.9.2-1.2A5,5,0,0,0,302.7,823.1Z" class="cls-13"></path><path d="M302.9,821.5v0Z" class="cls-13"></path><path d="M774.5,919.2c-.5,1.3-14.3,35-25.9,106.8H735.2l-.9-7.2s1.2-5.6,3.5-14.6q1.4-5.1,3.3-11.4C747.4,971.6,758.3,941.6,774.5,919.2Z" class="cls-14"></path><path d="M739,1026h-9.1c-.4-30.8.7-73.8,8.3-103.3a467.4,467.4,0,0,0-2.5,54.8,202.2,202.2,0,0,0,2.1,26.7c.3,1.6.6,3.2.9,4.6S738.7,1015.3,739,1026Z" class="cls-14"></path><path d="M418.9,1028.9c-1.2-2.1-2.2-4-3.4-6l-1.6-3c-.6-1-1-2.1-1.6-3.1l-3-6.2-2.6-6.3a183.7,183.7,0,0,1-8.5-26,198,198,0,0,1-5-26.6,161.1,161.1,0,0,1-1.3-26.9,167.7,167.7,0,0,0,3.9,26.5,201.4,201.4,0,0,0,7.4,25.5,173.2,173.2,0,0,0,10.7,24.1l3.1,5.8,3.4,5.6,1.7,2.8,1.9,2.7c1.3,1.7,2.5,3.6,3.7,5.3h.1a5.3,5.3,0,0,1-8.6,6.1Z" class="cls-2"></path><path d="M154.1,1030.2a4.3,4.3,0,0,1-3.1-1.2,4.8,4.8,0,0,1-1.2-3.1c.3-17.6,2.7-37.9,2.8-38.7a4.1,4.1,0,0,1,4-3.7h.2a4.2,4.2,0,0,1,4.1,3.3c3.4,15.1,12.7,28.1,19.9,36.4a4.3,4.3,0,0,1,.6,4.6,4.2,4.2,0,0,1-3.8,2.4Z" class="cls-4"></path><path d="M156.8,987.7c3.6,16.3,13.7,30.2,20.8,38.3H154.1c.2-17.7,2.7-38.3,2.7-38.3m0-8.5h-.4a8.5,8.5,0,0,0-8,7.5c-.1.8-2.5,21.3-2.8,39.2a8.9,8.9,0,0,0,2.4,6,8.6,8.6,0,0,0,6.1,2.5h23.5a8.5,8.5,0,0,0,7.7-4.9,8.7,8.7,0,0,0-1.3-9c-6.9-8-15.8-20.4-19-34.7a8.5,8.5,0,0,0-8.2-6.6Z" class="cls-2"></path><path d="M278.5,1030.2a4.4,4.4,0,0,1-3.1-1.3,4.5,4.5,0,0,1-1.2-3.1c.4-7,.5-14.2.3-21.7a4.4,4.4,0,0,1-3.1,1.7h-.3a4.1,4.1,0,0,1-3.6-1.9c1.2,7,2.3,14.3,3.1,21.6a4,4,0,0,1-1,3.3,4.3,4.3,0,0,1-3.2,1.4H180.5a4.1,4.1,0,0,1-3.7-2.2c-11.7-22.4-23.3-59.8-23.3-75.5,0-6.5,1-19.5,3.8-36.5,1.1-7.1,3.2-24.3,5.3-42.4,4.1-34.1,6.1-50.5,7.3-53.7,6.9-18.3,39.4-39.5,96.7-62.9,44.6-18.3,91.6-32.7,109.7-38.1l7.3-2.1,1.2-.2a4.3,4.3,0,0,1,4,2.9l27.5,84.1L435.8,863a2.9,2.9,0,0,1,.2,1.6l-8.9,161v.7a4.2,4.2,0,0,1-4.2,3.9Z" class="cls-4"></path><path d="M384.8,720.8l16.3,49.8,11.2,34.3,5.1,15.5,14.4,43.9-8.9,161.1v.6H278.5a294.5,294.5,0,0,0-1.8-48.5,369.2,369.2,0,0,0-10.8-55.9c5.8,24.1,5.9,56,5.5,71.2-.1,5.5-.3,8.8-.3,8.8-9.5-45.3-26.1-66.7-27.7-70,1.4,3.6,17.9,47.8,23,94.4H180.5c-12.2-23.4-22.8-59.5-22.8-73.5,0-6.7,1.1-19.6,3.7-35.8s10.5-90,12.4-95.3c15.3-40.6,168.4-88,203.7-98.4l7.3-2.2m0-8.4a8.5,8.5,0,0,0-2.3.3l-7.4,2.2c-18.2,5.3-65.3,19.9-110.1,38.2-25.6,10.4-46.5,20.5-62.2,30.1-20.5,12.4-32.6,23.9-36.9,35.2-1.2,3.5-2.9,16-7.5,54.7-2,17.3-4.2,35.2-5.3,42.2-2.8,17.3-3.8,30.6-3.8,37.2,0,16.5,11.5,54.1,23.8,77.4a8.2,8.2,0,0,0,7.4,4.5h85.9a8.2,8.2,0,0,0,6-2.5,8.6,8.6,0,0,0,6.1,2.5H422.9a8.4,8.4,0,0,0,8.4-7.9v-.6h0l8.9-161a6.5,6.5,0,0,0-.4-3.1l-14.4-43.9-5-15.5L409.1,768l-16.3-49.8a8.6,8.6,0,0,0-8-5.8Z" class="cls-2"></path><path d="M417.4,1030.2a3.9,3.9,0,0,1-3-1.3,4.3,4.3,0,0,1-1.2-3.1v-1.4c.1-2.5.2-5,.2-7.5,3-79.7,3.4-137.8,3.4-149.3-18.5-14.7-31.6-36.3-38.8-64.4-9.2-35.8-6-70.9-4.8-80.7l.3-2.3a4.1,4.1,0,0,1,.8-1.9c8-10.3,29.4-11.5,31.8-11.6h.1a4.3,4.3,0,0,1,3.5,1.7,4.4,4.4,0,0,1,.5,4c-6.6,17.6-8.3,37-5.1,57.5a168.5,168.5,0,0,0,9.3,33.3c2,5.1,4.2,10.3,6.7,15.4A222.8,222.8,0,0,0,449,862.2a4.4,4.4,0,0,1,1.1,2.9c-1,55.3-2.7,109.5-4.9,161.1a4.2,4.2,0,0,1-4.2,4Z" class="cls-1"></path><path d="M406.3,710.9c-7.6,20.2-8.3,40.6-5.2,59.7a165.9,165.9,0,0,0,9.4,34.1c2.2,5.5,4.5,10.8,6.9,15.7A230.2,230.2,0,0,0,445.8,865c-1,57.8-2.7,111.3-4.8,161H417.4c.1-3,.3-6,.4-8.9,3.4-89.9,3.4-151.5,3.4-151.5-21.4-16.2-33-39.9-39-63.5-9.1-35.3-5.7-70.3-4.7-79.1l.3-2.2c6.9-9,28.5-9.9,28.5-9.9m0-8.4H406c-4.3.2-26,1.6-34.9,13.2a8.1,8.1,0,0,0-1.7,3.9l-.3,2.3c-1.2,10.1-4.4,45.9,4.9,82.3,7.2,28.2,20.2,50.2,38.7,65.4-.1,15.2-.5,71.4-3.4,147.2l-.3,7.3v1.6a8.4,8.4,0,0,0,2.3,6.2,8.6,8.6,0,0,0,6.1,2.5H441a8.4,8.4,0,0,0,8.4-8c2.3-51.7,3.9-105.9,4.9-161.2a8.6,8.6,0,0,0-2.1-5.7A227.8,227.8,0,0,1,425,816.7c-2.4-5-4.7-10-6.6-15a162.9,162.9,0,0,1-9-32.4c-3.1-19.9-1.5-38.5,4.8-55.4a8.4,8.4,0,0,0-7.9-11.4Zm0,16.9Z" class="cls-2"></path><path d="M365.9,978.7l3.6,47.4a4.2,4.2,0,0,1-3.9,4.5,4.2,4.2,0,0,1-4.5-3.9.9.9,0,0,1,0-.7h0Z" class="cls-2"></path><path d="M156.8,987.7c3.6,16.3,13.7,30.2,20.8,38.3h-7.7a49,49,0,0,1-8.6-11.9,77.5,77.5,0,0,0,.2,11.9h-7.4C154.3,1008.3,156.8,987.7,156.8,987.7Z" class="cls-13"></path><path d="M191.6,1026H180.5c-12.2-23.4-22.8-59.5-22.8-73.5,0-6.7,1.1-19.6,3.7-35.8.6,14.3,3.3,31.3,9.5,51.6C179.1,995,186,1013.4,191.6,1026Z" class="cls-13"></path><polygon points="383.4 956.1 386.3 1026.1 377.9 1025.9 383.4 956.1" class="cls-13"></polygon><path d="M184,920.8a3.9,3.9,0,0,1-2.7-1,4,4,0,0,1-1.5-3.1c-.1-2.9-2.4-72.7,13.7-122.7a3.9,3.9,0,0,1,.8-1.4c1.1-1.3,27.2-31.5,107-58.3l.5-.2c13-4.3,26.7-8.4,40.7-12h1.1a4.2,4.2,0,0,1,3.6,6.3c-.2.3-20,38.1,4,127.9a4.1,4.1,0,0,1-2.8,5.1L329.8,867a5.4,5.4,0,0,1-.4,2.2,4,4,0,0,1-2.5,2.1l-19.1,6.6a3.4,3.4,0,0,1-1.4.2h-.2a4.5,4.5,0,0,1-2.9,3.6l-17.8,6.2-1.4.2a4.5,4.5,0,0,1-1.6-.3,4.1,4.1,0,0,1-3.1,4L255.7,898h-.5a4.2,4.2,0,0,1-3.3,4.3L235.6,906l-4.4.9h-2a4.2,4.2,0,0,1-3.1,3.2L210,914.4h-1l-1.4-.2a4.3,4.3,0,0,1-3.4,3.3l-19.5,3.1ZM301.1,734.4Z" class="cls-1"></path><path d="M343.6,726.2h0m0,0s-21.4,38,3.6,131.1L328.5,863s-11.5-19.3-10.6-75.2c0,0-7.7,37.5,7.6,79.5l-19.1,6.6S292.5,842,303,788.3c0,0-14.5,36.9-1,89.4l-17.9,6.2s-12.3-31.4-5.5-89.4c0,0-9,48.6-.3,93.2l-23.6,6.2s-7.8-40.1.2-92.7c-.7,3.5-10.4,55-3.9,97.1l-16.3,3.6-4.4.9s-3.9-32.7,1.2-76.9c.5-4.8,1.1-9.8,1.9-14.9,0,0-1.3,6.4-2.9,16.2-3.4,20.4-8.2,55.7-5.5,78.9l-16,4.2s-5-68.6,5.3-92.5c-.7.9-16.1,22.1-10.8,95.6L184,916.6s-2.5-71.5,13.5-121.3c0,0,25.7-30.4,105.5-57.1h.2c12.1-4.1,25.6-8.1,40.4-11.9m0-8.4h-1.4l-.9.2c-14.1,3.6-27.8,7.6-40.8,12l-.6.2c-80.8,27.2-107.7,58.3-108.8,59.6a7.8,7.8,0,0,0-1.6,2.8c-16.3,50.7-14,121.2-13.9,124.2a8.2,8.2,0,0,0,3,6.2A9.1,9.1,0,0,0,184,925h1.4l19.5-3.2a8,8,0,0,0,5.2-3.1h1l16.1-4.3a8.3,8.3,0,0,0,4.6-3.1h.3l4.4-1,16.3-3.6a8.4,8.4,0,0,0,6-4.9l21.7-5.7a8.6,8.6,0,0,0,5-3.7l1.4-.4,17.8-6.1a8.4,8.4,0,0,0,4.6-3.9l19-6.5a8.6,8.6,0,0,0,4.9-4.3,1.9,1.9,0,0,0,.2-.7l16.2-4.9a8.5,8.5,0,0,0,5.7-10.3c-12.3-45.9-12.8-77.4-11.1-95.8s6.2-28,6.7-28.9.1-.1.1-.2a8.4,8.4,0,0,0-7.4-12.4Zm0,16.9Z" class="cls-2"></path><path d="M230.4,902.8l4.4-1c-6.2-31.6-3.9-75.9-3.9-75.9C226.2,870.1,230.4,902.8,230.4,902.8Z" class="cls-13"></path><path d="M184,916.6l19.5-3.2c-5.3-73.5,10.1-94.7,10.8-95.6-10.3,23.9-5.3,92.5-5.3,92.5l16-4.2c-2.7-23.2,2.1-58.5,5.5-78.9C215.6,848,208.3,899,208.3,899c-12.2-34.9,10.3-86.3,10.3-86.3-20.3,19.6-25.1,91.8-25.1,91.8S178,838.1,207.1,798.8c21.5-29,92-58.7,95.9-60.6-79.8,26.7-105.5,57.1-105.5,57.1C181.5,845.1,184,916.6,184,916.6Z" class="cls-13"></path><path d="M278.1,1018.8l-.9,7.2H263.8c-11.6-71.8-25.4-105.5-25.9-106.8,16.2,22.4,27.2,52.4,33.5,73.6l3.2,11.4C277,1013.2,278.1,1018.8,278.1,1018.8Z" class="cls-14"></path><path d="M282.5,1026h-9.1c.3-10.7.4-17.2.4-17.2s.6-3,.8-4.6a202.2,202.2,0,0,0,2.1-26.7,467.4,467.4,0,0,0-2.5-54.8C281.8,952.2,282.9,995.2,282.5,1026Z" class="cls-14"></path></svg>